<mxfile host="app.diagrams.net" modified="2024-07-25T09:50:19.371Z" agent="Mozilla/5.0 (Windows NT 10.0; Win64; x64) AppleWebKit/537.36 (KHTML, like Gecko) Chrome/126.0.0.0 Safari/537.36" etag="qX8CsbIDwwhoxLkwewpV" version="24.6.4" type="device">
  <diagram name="Trang-1" id="AuYXc1iOQJvg0717brXL">
    <mxGraphModel dx="1595" dy="823" grid="0" gridSize="10" guides="1" tooltips="1" connect="1" arrows="1" fold="1" page="1" pageScale="1" pageWidth="827" pageHeight="1169" math="0" shadow="0">
      <root>
        <mxCell id="0" />
        <mxCell id="1" parent="0" />
        <mxCell id="ogiFnDlVl8c2z2j7Tte2-1" value="Architecture" style="text;html=1;align=center;verticalAlign=middle;whiteSpace=wrap;rounded=0;fontStyle=1;fontSize=24;fillColor=#ffcd28;gradientColor=#ffa500;strokeColor=#d79b00;" vertex="1" parent="1">
          <mxGeometry x="576" y="143" width="181" height="68" as="geometry" />
        </mxCell>
        <mxCell id="ogiFnDlVl8c2z2j7Tte2-6" style="edgeStyle=orthogonalEdgeStyle;rounded=0;orthogonalLoop=1;jettySize=auto;html=1;" edge="1" parent="1" source="ogiFnDlVl8c2z2j7Tte2-2" target="ogiFnDlVl8c2z2j7Tte2-5">
          <mxGeometry relative="1" as="geometry">
            <Array as="points">
              <mxPoint x="140" y="347" />
            </Array>
          </mxGeometry>
        </mxCell>
        <mxCell id="ogiFnDlVl8c2z2j7Tte2-2" value="" style="shape=image;html=1;verticalAlign=top;verticalLabelPosition=bottom;labelBackgroundColor=#ffffff;imageAspect=0;aspect=fixed;image=https://cdn4.iconfinder.com/data/icons/basic-office-1/300/business_card-128.png" vertex="1" parent="1">
          <mxGeometry x="84" y="125" width="128" height="128" as="geometry" />
        </mxCell>
        <mxCell id="ogiFnDlVl8c2z2j7Tte2-9" style="edgeStyle=orthogonalEdgeStyle;rounded=0;orthogonalLoop=1;jettySize=auto;html=1;" edge="1" parent="1" source="ogiFnDlVl8c2z2j7Tte2-5" target="ogiFnDlVl8c2z2j7Tte2-8">
          <mxGeometry relative="1" as="geometry" />
        </mxCell>
        <mxCell id="ogiFnDlVl8c2z2j7Tte2-5" value="" style="shape=image;verticalLabelPosition=bottom;labelBackgroundColor=default;verticalAlign=top;aspect=fixed;imageAspect=0;image=data:image/png,iVBORw0KGgoAAAANSUhEUgAAAIMAAAB+CAIAAACI8zX2AAAJBklEQVR4Ae2de1QUZRiHh4VSuyyhFlnqSfOSmcnZIPKWJlko5F2TVDppaqUpZCp2sSLR0i6WHjSXOygiomIKyUUt5WJiCCS4qBAosMCyN0WL0unsrnKZd5jdWZj9dve8c+aPnXe/7/vNPM/M7M4OZ6BonKyDAGUdq4FrQZtk4p9rmtqC36+ePn4lJxNnDgJXc4/V5OfcVCrM2LO4TFyrrjz9w7qEqRKpRIwzLwK7Jz19MmRFw8XzpithN9HUeO239cvD3B+KmzDw5OagkpTEGtn5+qsViqpKnLkJyC/LZBmHcrYG75nsJpWIjwbOaayrMcUHiwnFhYJ4n6HRLz1RkBiuVjZocTKLgEajkaUfjPcdFj2ub+WpNKMymCbqS85Fj+ubvHBiXUWZWSuAndoQUNbK04MWhD/fo+LXVG4ZbUzcUNbHevU/tMhHWV/bZjxc6AABjUaTue6d8Od7KEqLOGS0MZG2cu6uiUMa5NUdyMWuLAQ0avUB//FJc0beampqT0aLieqzp6QScemxIywjYanDBKqKC8I9e5YkRRg3kb5q/v554xiJ5ZvfL/J2FWhmZBFZFGjTirxdSwN8GFuUvnbBvtkjjJhoarwW5uFSkBjO6IwmzFYFTZTnnpBKxApZIauMO2cnw6mpprQYTZiNntERmlCrVBEjXUuSIrlMFO3eHvPSEwwNWq0WjwkGX9MXoQmtVnvAf/ypjR9wmTi7Y0PCNAmaMB200ZasJlKWz85cu4DLRF7o+r0zPNCEUb6mN2A1kRrol7Hav3NMVO3fCYVhpS43gyEJTZDZK9AEGe4wFU1AJmQqaIIMd5iKJiATMhU0QYY7TEUTkAmZCpogwx2mognIhEwFTZDhDlPRBGRCpoImyHCHqWgCMiFTQRNkuMNUNAGZkKmgCTLcYSqagEzIVNAEGe4wFU1AJmQqaIIMd5gquAkYiZWOEDD/bzs6kop9IQE0AZmQqaAJMtxhKpqATMhU0AQZ7jAVTUAmZCpoggx3mIomIBMyFTRBhjtMRROQCZkKmiDDHaaiCciETMXOTKjKcpN3RUVGRsXs+SW/igxSM1PtyoS6+HuvB6k7k+jRN+KvmEmFRDd7MqHKXz+iy10RFOXgMllaToKpeZl2ZEJ1+hPJPRRFOXQTi530QsTe2y6qzeNi+V72Y0L564dDdQIcuk/dFOx1v17FfWM3n7cVFXZjQpG2bICjTkTP2bGVF7dNFOtVdHnhy3yV5fdvcxLtxUTdobf7inQiXOfGV2u15Ttfe8hB58LJ7aNcpTlgLN7HTkxUJ8zvpRMh6uWfWKODWBE1o7tBxZCVJ2xChX2YqIye2UPHXdRnYXKdYW+u2j3nEb0KxwFLj9ZbfA/nH2gPJtRlP/nqz0WO/ZakNEOv2Ws4TPR65PzJWLqHHZhQy36coL+ecxywLE3RArAueWEf3RmLEj06b4/1P7/Q9k2oi74e000H3HFwQGYrEVptfco7/XRfpyiH7jOiKloUWecrE0xs+YT1qUJWsj2qvC8879V/S3pm1UnGR7MifflAgwpnnx2XrfzCIjXQL2vBWK6nCp1bOGbvdHcr4Q5WQ5kd5Ka/oHZyW5vDEKHVKk+sHGK43H7g5S0y61aRGuh3zrcPl4n2nrQFoJAoKI4FPqXf6+9xX3eG5RJOmR003KCi6+iNhSwNSKw0e6YJZ6d2nnnGPp5lq/Wp7/bXi6BE93V3ZZ1cuuk/tSnqXo/P8qxZhU2bkO9/q/cdzrpPCiOT07NrssD5y7J7DleaLZuoin/DVX/xJurlOXNuu9Pskb0Nx43joBVtv1xxgbH4ezZs4q+IaXd+0Bi25hTHzq46s85d92s5RTn2W3Kk+crP4qiNBNqsCfWl0EnOer5Ow4ycdVRngw1fdCnRY/779D9LGaFC4m1bNaEu/m684R6E0/CgbI4jQgdVde7uzTyHh+fsstJbqjZqQlWwYVRXwxFhXIRWqyrcONrQ3MFlSph13lK1TRMtp37WCzp4clH/uelF/U8iFCWeaJ23VG3TRF2C/+NdRJSoay/vb027SFDLds7s3VVEUaJuQwJa/04IrRGq2KYJQrAEjUUTguLlMTia4AFL0KZoQlC8PAZHEzxgCdoUTQiKl8fgaIIHLEGboglB8fIYHE3wgCVoUzQhKF4eg6MJHrAEbYomBMXLY3A0wQOWoE3RhKB4eQyOJnjAErQpmhAUL4/B0QQPWII2RROC4uUxuPkm4H9lxv97ygpe8OfFoglW7rCIJiATMhU0QYY7TEUTkAmZCpogwx2mognIhEwFTZDhDlPRBGRCpoImyHCHqWgCMiFTQRNkuMNUNAGZkKmgCTLcYSqagEzIVNAEGe4wFU1AJmQqaIIMd5hKwERpwKTqwzGdMsPtsXylUzak+nBM+aZlRd6urefSAB+4OSbcPd0ewvqkLXjPrnVYB1/DFbV8pYObwNG9XRNr3uR6vtMf0q/3THaDINAEB2vut1hNHFk6/fjHb3OZKP15d7hnT7WygSEDTXDj5niX1UTCNMnvWz/nMqG8VCyViP/Ky0ITHHB5vQVNNMhrpM85l2Umc5m4fetWrFf/rC2fogleuDkaQxOFSVFhHi6NilouEzRNn9kWHOvVX9XQ5hmg1QfDy0IWCzQzrBNZFGjTykIWX4n6irFFSXPHpq+az6qBpmmq+Y3rtVURIx7J/uEzRn9c7BQCRftjpBKxvOB0M3DGixYTNE0X7QoN83Apzz3RKdk4SDMB+aUL0WP7ntwQwKDferGNidu3b6e+PyPqxT7wo7t5UHzBl4D80oV432GJszybblxvjZ7xuo0Jmqb//ftmyntTIkc/VpAQxjcS20MCpZk/x706OHGW5w1lPQM9Y5Fpgqbp//75O/ubIOlzzocWTZKlJ2s0GhiAFaMEynKOH/1wnlQizljtf1PdwOAOF1lMGBrVnM06vNhXKhHHvTIoZcXrOVuD8yK+y4v8HmduArmhIUdX+cdPHi6ViJP8RpVlHITQWSvtmjC0Vl4uyQ/bnPaBX8IUt7gJA2NffhJnDgJxEwbG+z6TsnRaXuh6jq9J5phg7YNFIQgYOSaEiMQxWQn8DxQpqhdaxpf3AAAAAElFTkSuQmCC;" vertex="1" parent="1">
          <mxGeometry x="227.99875" y="284.00241071428576" width="131" height="126" as="geometry" />
        </mxCell>
        <mxCell id="ogiFnDlVl8c2z2j7Tte2-7" value="Extract Text from Image Using OCR" style="text;html=1;align=center;verticalAlign=middle;whiteSpace=wrap;rounded=0;fontStyle=1" vertex="1" parent="1">
          <mxGeometry x="218" y="424" width="151" height="30" as="geometry" />
        </mxCell>
        <mxCell id="ogiFnDlVl8c2z2j7Tte2-11" value="" style="edgeStyle=orthogonalEdgeStyle;rounded=0;orthogonalLoop=1;jettySize=auto;html=1;" edge="1" parent="1" source="ogiFnDlVl8c2z2j7Tte2-8" target="ogiFnDlVl8c2z2j7Tte2-10">
          <mxGeometry relative="1" as="geometry" />
        </mxCell>
        <mxCell id="ogiFnDlVl8c2z2j7Tte2-8" value="" style="shape=image;verticalLabelPosition=bottom;labelBackgroundColor=default;verticalAlign=top;aspect=fixed;imageAspect=0;image=data:image/png,iVBORw0KGgoAAAANSUhEUgAAAIwAAABsCAIAAAA35s3rAAAQV0lEQVR4Ae1deXRTxR6mjwY9D5/iQU2hLiCyiB7ZHg+V51MRNS1i2QShZW0VsKDlqQiyUwUEFJB9U6QIZX2lFIsIgiCbgKVkb7qkS9okTZo2SZumyc19JwSuN5OZSe7NWnp7+sfM3Pn95vt9X+Yuc+fOtCK5v4hnoFXEI+QAkpxIzeBHECkiOQgi7GxVH9mqyVilzVxX8/Ne0/WzllK5vcEcdlQkGb6eRFjMputn1buWFc8eIXn3marti8NOh2xif6GAD/xLRj9dsmCc5sevTdfP2s3GsIAMdU+yqks1+9YWpsUJh8TS6ShZkBiW+OmNSpN60yFB0nExhWlx1Yc3W7UVdMNgp0Mkkt1o0GXvLJo1BBL5rR+vbFL/YIfq1b907LMoeJ7lhWlxuqxtoelbQRfJqq2o3DJflNDZM063krgYorHBK49BrSB5p4cbJI9Tn+dR8YguVdsXN2lVQQUWRJEaVSXlq2YApzXPOKmShkJhUEP16lw8ogsFhlliSGz5ylRrldJrE+wqBEUkwmpR7/5KNPQxRqEazhxhF0OgrERvP8EIMFBZNPRx9a5lhKU+UHgoP4EXyfjHKdkkyG0SEJJnVv3DCgpWWBK+d3pP8FSJLKmP4ez/Aos/kCJZtRXKpZMouEwTFes+CWxsTL1p9q5RZ6ys3DK/9IvkwrQ4581eXAzTKFz1lUsn2Y0GpgBQ9QMmkvHar0zP6eJhnUs+H6PNXGsWXSEsEfHYCNBkrzeZ8s5p9q4pWZAoHubt3sf9RkOW1Md88yLgkF02MCLpf8oQxnf08UcnSuhUtnxq3eWfHbYmdqDDYkU0NtT+nlO2fCoDteI7qDNWOhwOPwH7K5LD4ajame6jPPLJA/THf4iQsRbWxBEWs+7oDujwBJSHsuVTiSYr6+b8HRYirJbSL9+DIgMKC6a/UnvuaCQM0PlDFt3WYbfX/pZVMP0VIFJotnj2CLu5jm7OKM2+J9lqdZgRBAqreMRTuqztDrudEazmUtlht+uyv5OM6k7Fi0oUTHu5SVfFLi6WIlmrlPLJA1CAqPKyFdOa9Bp2yJqRlc1YU7HuEypqVEKeMtBWq2MRFxuR7PWmgvf+jYLiKpcm9TbdOM8CUPM1qbt0wuvAkmLG6/Z6E9MYGYvkcDiUi8bjFVJ8MIh112YaQETVb9JVFc8egSen+NPhhNXCCDZjkdS7luNBlMwf29zv3xgxCFR22O0V6z7GU1T6RTJghc8yE6n2XDa+edX62XfrPQKeR+Co5sev8URVH94MmGCyDESyFInxbxy0BzdiWmpph2pO/IjTKb6jWXTFR058FclWp8c/vtWc3Odjky2nmi57J0Yn6bjnbAatL2z4KlLJ56Mx7VVuW+RLYy2wjmbPagxvykXjfeHEJ5Fqf8/BtFTy+WjuOoThWrVhDoa9ut+PY2xdh7yL5LA1YZ5b5ZMHBHBM3ivc5ljBYWsqTItH6SRN7OV1ooR3kaqPbEU1IB7+pEUpa47EhRhzk1YlGf00ikbVxrl4PF5EshsN4lHdUN7rLp3Ae+eOUgwYr51B0SiMi7EopVRNz4QXkSq3LkC5rlgzy9MdV4JhoPybNBSZpV+mYAxxIjWqikVvPQr1K0ro3KRXY/xyhzwZsBlrJGN6QvkUCviWYomniasEJ1Lp0skoj5o9q1EeuXIMA4ZTB1GUli6djDJEimQplqDcSRN7BWPiEgriXVbunGLtPhuCylpK4J0JKVLVjqWUMZCoOZl5lxEXynAwdxCo2zy4SA6HQ5bUB9DGlVWkDvZ/ZkUoSYnAtlBvtMUju0LnWsNFMudfgCokFPBN189GYNjNC5Lpz99Q9NacOuAZC1wk1BsR2fi+XDfyJJFFCerVdtEnCZ7eICIRTVbUA2zVznRPF1wJCwaqD21CdSbPbzQgItVdzEXZY+7lWQBtySa2Wh3qGVT/UwbADEQk1FS6gmkvA8Zc1h8GSr9IhnYG5ZKJgFtQJMJiRn0Bos1cBxhzWX8YMJw+BBVJPPxJYAI2KJJZeBlqKRTwrZpyfzBxtgADtjo96qsNU945emVQJH3OLqhIRf99i27GpQPCAGr0QbP3G7p/UCTUa8Sq7UvoZlw6IAygJhUB43igSEWfDoP2JOhDVkCAtmQnqCEi2US3b/FBkVATZRsUN1sym0GK3WbQQruEUMCnf4XhJlKTXg23ie/AdGZskKK6+9xKxz0H5dycf4EK1k0k0/WzUAN58guUAZcILAMlCxKhnNPnMbqJVH14C9QAuI4FFmUL96baNA/KOf2p1E2kijWzoAbq3V+1cCqDF742cy2U88rN86hG3URSLp4ANQj7MhgkSZg1FRqTn8utBcQJRV1gEjU/74VyXrbsfaoBN5FK5r0LNTBe+YUyCE+iMTclNjpmyjFm3/UAWAPiBPDpd9b4xyko5/R3Fm4iFX86HGoAjFL4DYy5A8vx5A7Rj0w8ChHJVm+2+PZBLsYJc0SBsmiQ50E5lyb2pppwEwk1G9b3jzQovwFMmHNn/6dft4d5UbyHuvXt16/fq/NONzrdWyT7Zr3Z/UFeVFRUm4eeTViQU2onSUKXlfbK83HzTuhdp0aibH/qqy8mbcvLgTsJIE52rhqKRFCRhPEdKYduIilmvA41aJDnUQahT9hkR75aMKHf/X+7r2/S/IULF60+qrCThPrwpE5t2r+Y9sNvN8XXjn8zuuu9bfsvuWYlydpfZnTj8Xp8dMZIkkTV/nGxvJiRGRVWmJPQx+LZokUphXJe8P5LVGV3kWa+ATWol12nDMKTAM9UNlF6/3vuG7Su+M6JrvZQ4iO8TqnOPkbospM7Rd/bd/5lVXZyJ95DQ7bdrgU6CU8oQKuoqXMFU/96e+cmEmpQ1iz+A3Ad6izAL1G5cfA90V0SN2Rl3/47um1yj+g2g9arnGe5Wx0oum2Xbo/x2r22TnZHSMBJqGOAt9egyId2DMUHgygDN5GK54yEGtRd/pkyCE8C4NeWv7APL4r3j/YP0/4eiek+5YDOdSmy3VzSjxfVqnVs8vG/lp8DnIQnErBV1ChP0cdDqapuIpWtmAYVSZ+7hzIITwLg165Y8QKP13thng0Kh9DnvPckr/1TT7WPbvf6enlE9yTU+9nS9ClUbG4iVW5dCBUJeAdFGYcu0Zj7Xmx0u7EH79yCW3KSO7S+P357Jezx1vBLarc27QZ/K5V+O7hd64cTvlO6aoFOQgcf0xJqKE61fjZl5SaS9uAGqEiqDXMog/AkbHkLe/Oiu6ZkKbUl+VI1QVrOf9KzDe+xt1f9qnQulGfVyc7sWbP7kokkjWdn9byn7YD0PCtJWvPSB/y9dey7+26J6eEkPLG4t4pa40ydsZKq6CZSzakDUJEiYNFuu3RjHD86qlWrVlEPjNnvvM6Y87dP7PVgdFRUa949baKjoqIfeDr1mMEmWvZ82/v6zD1/e41D8/m5fdryuqadcz5aeTqheAhbAjUKrs/ZRWFyEwk1u1ia2IsyCF/CrpOcPZaVc05Wc+ciQxLmsrwzOVlZOacuSzW3nnC9wYM48WYS3OOM3yfZjQZoTxIK+OyWlwpufM3fu81QjSIc+WaWJEnZhH5QM26efjB+Eqj7b9mEf9KbczvdkSSpXDIRKpI2cy3djEsHhAHtgfVQtpVLJ9H9gyJpMlZBzegj53R7Lu0PA6XpU6BsA1+7giIZr56GmgnjO9LPkv4g42xdDNjrTagZ3cDaC6BIRGMDyrL2XDbHbwAZqDmZCe8PAj6wpCMoEkmSJfPHQo3LV88MIETOVfGcUVCei2YNAciBiKQ7ugNqLErozGL9UKA9LutiwDnFEbHHgu7Y9wBLEJGsVUqoSEIBX398N2DPZdkxUH14M5zkIbG2Oj3gEyISSZKoV7SKmW8A9lyWHQOK1MFQkaAr4MFF0h37HupCKOCH91U6O0YizcqilKHorf0tyxMtXCS72ShK6AR1BJXa0y9XgmEA9XgkHtEFOuceLhJJkuWrZ0JF4joThn1fDplvXkQRW776Q6gHpEj1kqsoXxHw5gIaSzModDgcqOu9cyGTP92+wqTiQYpEkiRqriTGHeWXS0AZwDzAKj4YhNoVBycSpmPKpzwPPXtCkXGFLgYIS700sRfq/ITZ2gMnkrMzfQafPyQU8NW7lnPsM2JAnbESpZBy8QSMKy8imYWXUH6FQ2ItRWKMa+4QnQGLUoq6YRYOiW2sKKJXBtJeRCJJEnW/KBTw5ckvcANFAKHQrM1Yg9nWtXLLfKgVVehdpCZdFWbbS/wKr1QzLTnhsNswVw3JqO5eF1b3LhJJkqghV9eZsPrwlpasgdfYVRvnIi8ZAr4ua7tXDz6J5CCIwo+QK4cK42Kggxle224JFZybuyJWXHVeL1IGOuzwWbh0cnwSiSTJxrICzP6qorceNV47Q/fLpZ1TA4WXMFt1i4d19nFpOl9FIknScOYI5kchSuhsFl7mtKEYMP15TjyyK4YxX7YScXljIBJJkqoNn2FaFb39RN3FXAplS07oc/fgt7AGpprguWImEtFkLfxQgNFJGN/B88UiHsFddtS5hfX2JTiKBPzSL1MYLWXLTCSSJG01WsxOPS5wqk3z/NxIupkqRzQ2YLYlcJGj+GAQ06XvGYvk/IRBXYqawUz9ghSprzWWFzZTrtnBbqquLPzwTYoBaEIy5hkWazuyEcn55bdS6nUvaVFCZ/3x3aiRXXZERKaVw26rPrRJPPxJqDBUIet7K5YikSTZIM/DbNxEIVPMfKNeci0yyQ0IKtON8wXvv0TFi0pIxz3XoMhn1yJ7kZwPTxVFmCEpOtzylan4MUR26MNr1ViuKFv2Pj1MVNq5hXV1JWu0fonkuo/AvGp0Ax0Xo1w6qV5ylTXWyDE0Cy+j1mFyC/nWWINyYZKfW1j7K5Lz+7kGM+pbDE/EQgFfMfMN7cGNLK6fYRfJWqXUZq5VTH8VGhe0sHLzPP+vygEQycWdLnunaOjjUKCowsKP4tQZK41XT9tNtWEXAAXAbqo1XjlZtTPdywOi5wBdfAdd9k6UW0blARPJectXJEbtk4HSiSqXpwxULhqv2vCZNnOt4dTBuou54R0MJCxm5aLx8pSBqMnAFHJoQj7l+QCumhVIkZxrkVjqq3YsRe3CAI0HVSge2ZXRzy3glTEDyijMQgFflNBJs28tYfXpC14fMQdYJFerjeWFqE8zMOEBhyRjevoYQ5CqoWYCAzjp2dL0KcG41gZFJBdrxisnC6a9TI+BUVo67rkgse+j27LlU30HXDD9leB9VhxEkW5LdfU05uUxhgXZ+L4+shmkapjJPXTYxXNGGq/9GiQMLrdBF8nVTEPBjfJVM7wOnNCDl0/+V1Aj9+rc8OthOh4gLR7ZtfybtNCsaR8ikVyMEFZL3YWfypZP9eWaLE8Z6JXHoFZoKLgBCCMU8MXDOpetmFZ36UQoh/lDKhLFKWG1mPMvaPd/q1w8QTLmGU8uhAI+fVU+yjCUCXu9yQVM8k4P5eIJ1Yc21cuu+zIlIeAgwyMSEIZVU27Ov2A4fUi7/1vVxrmlX6Y4n5k2zgWqhT5rFl1p0mtC3y7QYkSIBGDisgADnEgAIZGY/T9K+dB54atVCAAAAABJRU5ErkJggg==;" vertex="1" parent="1">
          <mxGeometry x="449.99875" y="292.9995535714287" width="140" height="108" as="geometry" />
        </mxCell>
        <mxCell id="ogiFnDlVl8c2z2j7Tte2-13" value="" style="edgeStyle=orthogonalEdgeStyle;rounded=0;orthogonalLoop=1;jettySize=auto;html=1;" edge="1" parent="1" source="ogiFnDlVl8c2z2j7Tte2-10" target="ogiFnDlVl8c2z2j7Tte2-12">
          <mxGeometry relative="1" as="geometry" />
        </mxCell>
        <mxCell id="ogiFnDlVl8c2z2j7Tte2-10" value="" style="shape=image;verticalLabelPosition=bottom;labelBackgroundColor=default;verticalAlign=top;aspect=fixed;imageAspect=0;image=data:image/png,iVBORw0KGgoAAAANSUhEUgAAAH8AAACACAIAAACtGyGIAAAMpElEQVR4Ae3ceVQT1x4H8CwTUIRAw1YelecCUrUojQXFQl0QF6SKdaEi0dY+bau1PqmIWjfQ2orVClpLTVkEIexPnwLyKhYVWWMFFwRkEXgsDTEZpq3WBfLOJAQycTI6w217+rw5OcfMzP19fzOfudyBPwxLBV9/ngDrz2sNO6to6Hc/fPj4wW/wTSHQ/fAhrTlFpd/T09Ny+fuLez7OWuoZ424pFvLh+6kC37m9kLF40oVda+4UZPd0d1PfDIP69f/JSl0gFAv5mcumXNgbXJkecysn/VZuBnxTCeSkX8uIu7gv5F8rvMVCvmTu2OpTiRQ3gET/wc9d5zYtFwv5329Z2VxRhsEXI4HWqorzYWvFE8xz1y28p+gkvQf6+g8w9KRoWqKPY23+aUZNYRFBoP5yfrLv2PRF7vfuyp68AQT97sePT73jc2LmqNaqCkIG3BiAQEd9jeTNcRlLPB79dl/vBhD0fxRHxEyybqksH0AvWEoi0F5bFe9lX3xgi0H9n9uaY9wty45FkFTDXQMWqEgRiyeY3629oXsD+ud+aeSORB9HVHF3wI1gAIlAV1dXiv+rF8PXkej39PQkTB9eFLWLpA7uAiRwJT4y1sP20f17fTegd+4rG2rEQn5j2UVAjWAMiUDbrWtiIb+jokRf/3Z2Soy7pfKunKQI7gIncHyKw/Xkb/T1KxOikmaPBtcFJpELpC/xKDu8S1//auyB5LmvkFfAveAEMgO9Sg5tg/rgROkk4fpffQr16ZiBGwv1wVnST4L69M3AVUB9cJb0k6A+fTNwFVAfnCX9JKhP3wxcBdQHZ0k/CerTNwNXAfXBWdJPgvr0zcBVQH1wlvSToD59M3AVUB+cJf0kqE/fDFwF1AdnST8J6tM3A1cB9cFZ0k+C+vTNwFVAfXCW9JOgPn0zcBVQH5wl/SSoT98MXAXUB2dJPwnq0zcDVwH1wVnST4L69M3AVUB9cJb0k6A+fTNwFVAfnCX9JKhP3wxcBdQHZ0k/CerTNwNXAfXBWdJPgvr0zcBVQH1wlvSToD59M3AVUB+cJf0kqE/fDFwF1AdnST8J6tM3A1fxF9dXSuM2rgpN+Kt+cRkTfWXlt+/5TJ9G8vJesPsc/ZmBttdX17ehlIXt0hNbA153suUb80wsR0zw/eBA3m0lhslSgqy5disyKWsHcBCti55naWy9KK5pACGGSxnp3zwRsuztAPy12HuUKZtj77FIvRWwdFVUoeFeBo50Zi6349qIUmUGjmNY89nQiRZsxOa1tzfujTxyaE9w4OShg81mH6lHf299rOVU6CxP3x1nOwye3EAOMNHX6dd5+h8OHKM5R1t19mk+KjraZcon9pLtkKWLbLlWgRJD+u1nPnBEOHZ+X1co+stbi08kXWg3NPcpmsvb2zp0cvoTNZ/kHTKKo7qjDY6kaK5bj38Gry8rj13r7WSBsFgsnmC076a0m0oMQxslazzdfDZm3dEsMGhV/CqviQFRhenrJ7s6WiIsROA43tXV1Wvj6U7iKaIN3/pZsI0n7b5Cdi/15z5pczxQWZW5c6mXk9UgDn5eFo7T1ydf7w2Unw/zff292NLcPQtfESAslpH1q0FHSnrngvx8uK/Hm3svqW8J5UgMQxtywvxdrIzZLM4QO2f8clyFc3dfIl4PYQuwPlp3YpkDTzBxTXRucdmF9L0LRhqbCLdekGNYy6nVjgji9GF2K4aht+MX2yE2845Vy6VJ4ZuWupqxh4wPCAkN3bxHclUPuUOy1JKNTNgh1duvuQqCvuHmGHo70s95ysqwYxl55/LSDopchnAE88QN6qmAZyC2jiNtR83b/HVC7BeicWbsQe47S9Xg2gbqOUE5Eq2PfcsGsZ2xPe1S2aW0HT523MGj/YP3n6wieBM3wOorSrcJjYa8se+alqolcYkV4rAKn9BoY4rIgWs8PiS/JkXkgAhmRfWOolx50JtfePJY/AXx5AuvFge/KKrmxIvGWmPmm3MdVp3pM+UYjVqZWqf5uZRlvz+cy/OKqMY3tQ2eYWTiYgtkzMYLmoVLUfDJaMRiUQL5aWtPJzPQq3TPR4y/n4e47qO1B6YacYcv+VKS0vuSRAU5cXlv7K/Br0Q95bkmwx3tEfMp+/omM6W+8kqYO8IWBCSRPxW0OHg6dXP1BcsbKwpyT2akJm2fKeBaB2ke9NoM7ZKH1h2cxkNcQi/jjoSDhA28pe7Ijjh/M8R1S3Gv/vkNLyNm/nFP1S/fKgKkrygKHYewEFOBpc7LysZJdLxRM60UxVtdERaLYydK7z8tSn2s4ZC3EcvY53Cjdr4Q/tV64FOfsjnaeDZ8/mgLhIUMNhdYWpoP4rCtg1LUt1SbodXHGqNmGCFjQ9RrPeEgYQM/D92RaM03fgJkqN/np0srSk6Gz7LjCnyPqmcd4YwJG0BXHuXVMHcEcQkt1Nx/QiN8qtxJWzEMEYwYIeCaT9vf9xSl1pfnrXXkcuxEae36cfi21gN/rlI1b8985yWuyfjVidIWfB50Zq6w4wLW7zy30cX0ReexLw7msFiIudOczVlPsQf9O48sTWTLMZt5uFYz1YlezadWOfLMp0ZIpRFTzTmWvl/f0IxSU5gvSiBfWzD5ufXOCNtixsEK7cNEHatsarij0NXHKJorire4IsikPdrnkSxVZAtYX/FD8MtGwz/I6cSUHc0tMjIAIge+BXTuY5gs72NnHmLvu/vMDXyuyhul2eLPvz3XhmGtOWudjUxe21YoxzB54bbXBnPsFsaq75KiMNQF4Y5cLrnRcL1I2vvo0zlTtC5JNAxhD3by35VccL2hqfF6geSz5e52E7eXKXXmPlVztP7IbFOO1ZxDV2QY1loSHfSyCRvwyoM2JAUNRRDBSKGH17QZs/38A1dvjc6vJ8wYnYvSfBygvjxvnRPPbH5s/7LQXnQ48BULLovFQYx4XBaLyx+1KrVZUbrTzWTIuOC83oHtecHjTJCRa87ii61SesDHmsvCX/y3SH+56bwSv9brpUFs9RgWi8XhO878RHJDiXVmvWtvNOz9M73XRd4cP9h+PnzaiwgbMRW8MOSFscsiQrz5L608qV7qtRl9635z9FxTY+G2Enz9JBwkbOCpuiM7CsK9rEyd/T5cv27N6pUif88RpuxBY9ZT/pU8QP3eq9b7B22vKsxOk0jS/p0vre+7KL1BhE1lY3lOqiTtrLTJ8GRRtlz74XSaJDk9t6im/5lNiME3DDZHW6/nZ6Wk5ZQ3kj+WnkiiswOtPjh9CE/4qeavBPV5VEd48ZAxnxRQxPwu+hT9/l8PKYo2j0d4bttLtZNNWXsi8O9cc9+jdRSXDPUpcOgcUkoj59rzOKZDXafM9p0z3W2EOTJ4+PzIvrtBmgX1SVmY7Wy9evrYvu2bNvwzODTsYML3NynWR00DqM8MGkwV1AfjyCwF6jNzA1MF9cE4MkuB+szcwFRBfTCOzFKgPjM3MFVQH4wjsxSoz8wNTBXUB+PILAXqM3MDUwX1wTgyS4H6zNzAVEF9MI7MUqA+MzcwVVAfjCOzFKjPzA1MFdQH48gsBeozcwNTBfXBODJLgfrM3MBUQX0wjsxSoD4zNzBVUB+MI7MUqM/MDUwV1AfjyCwF6jNzA1MF9cE4MkuB+szcwFRBfTCOzFKgPjM3MFVQH4wjsxSoz8wNTBXUB+PILAXqM3MDUwX1wTgyS4H6zNzAVJHrVx6PTJozGkwHmGJYID1gclnUTv1viKk5dSJ2kg2q+B3+U7fhU3kOjyR6j6hMiNLXl9deFwv5TT8WP4cif9gld9RVi4X81vKL+vrdjx/He9mXiff/YafyHDaqSBF/5yZ48Aumr69SqQr3bpD4uXShz/ZFM88h3oAvOePt1/M3v9NHr1KpWH0bigb856IiRTzgLjCAROBWboZYyO+oLO0DJ+irVKqi/aHxXvYdddUk1XDXAAQ6W5oSZ4z8YftqXXp9/Uf376UvdEtdMEHW1DCAXrCUICBv+29m4BvJc8b8himp9FUq1S8/tabOd03xf7X5agkhA24wEmitqsgImJw0yxltrtOj15/7msO/yNpOvesT4255+attsmbyL2ZkdCbPV5G8tbnk6Gexk2yylnp2Ndc/SU+ur1Kperq7ryUePj7VIWaiVe6GpeXffXn7Qm7TlaKmK8XwTSlQVHcxTxr3VV7I8lgP2zjPv0mj93Y/fEhKb1BfM/rR/Xu3suJzP3orYfpwsZAP388ocHzK0OwP591Iidb91Z70BvT/xkl6uG/nr/Kfuprr0aY6+KYQ6Gqu/1XW3of21A/Pqv/UIDiAgQDUZ4AGrATqA6NkEPQ/YatDDJYIbXUAAAAASUVORK5CYII=;" vertex="1" parent="1">
          <mxGeometry x="658.9998706896552" y="284.00118534482766" width="127" height="128" as="geometry" />
        </mxCell>
        <mxCell id="ogiFnDlVl8c2z2j7Tte2-16" value="" style="edgeStyle=orthogonalEdgeStyle;rounded=0;orthogonalLoop=1;jettySize=auto;html=1;" edge="1" parent="1" source="ogiFnDlVl8c2z2j7Tte2-12" target="ogiFnDlVl8c2z2j7Tte2-15">
          <mxGeometry relative="1" as="geometry" />
        </mxCell>
        <mxCell id="ogiFnDlVl8c2z2j7Tte2-12" value="" style="shape=image;verticalLabelPosition=bottom;labelBackgroundColor=default;verticalAlign=top;aspect=fixed;imageAspect=0;image=data:image/png,iVBORw0KGgoAAAANSUhEUgAAAH8AAAB+CAIAAACCg1nhAAAPxUlEQVR4Ae2dCVQT1xqAw1Jft4ettY2gVKvSYh+vKq5Ha6l7BEQFt6q411JrXev+9Em11WIFLFYtq4C4oOKCWNx3AWURJguEJSxJzJ6ZOb6+6rMn74SByzAzJAFmMlGHk3P47/Lf+9/v/2dy586dCc/E/bFHgGdL108eo+qSB/K863U5V7mPBQLyvOuq4rw/UaMtVE0mkyX6j1Xy+/vC04MHxg3oGOfrxn1sJ3B8Ur/cyM1IXZVlN1DTf/rH4zu71sQPejt1dM9bEevEWceVZUKtvEanqOU+Fgho5TWPyiWS7FN39mxOE3jHDeh4Y2vYExRuyQcU9A0V4mMTP0n283x49DejXodyf20iABuNUEZK6uieaQJvNfSA0gFE+oYKccqoD07PG62ukrapU06pGQFtXU1m2KRDI7qqSygc0Iz+n4jh8LgPT88bY1CrmrXBJdpBwKjXnf9mSrKf52ONknAENKN/bdOi1LG9dYradvTFqVIQMGjUR4P6/r4suEX6GlFBnK+bJPsUhTaX1W4CVfeuxfm61d29jHdAU+xf37LkxLSh7e6Fa6BFAmcXCrKXT6Wg/9fTp4lD3y1M/bVFVa6g3QSEZ9PiBnT8L6wHDmiIfa24MM7XTQ4VtrsLroEWCWhqqswnn3tXiPQlGYeShndBEKRFVa6ADgJpAu+ixD1E+sWHotMm9KGjfa4NSwROzhiWt3crkX5R4p4jAT6W9LgyOgicmjUiN2ozR58Olq1vg6Pfemb0aXD06WPZ+pY4+q1nRp8GR58+lq1viQX6ynNJZUtHyX5egRhe9rsFLNAXBveGBHxIwK/YOsdGByAGnTb/pvpmpib3CvxIbmOQwWqltuCWWSvnso0d2dgyXdVYoF8aNhKjb4sDDFVlNfs3i6b3ASrCoO6y3d/qhPkWEBhqKqr3bRBO6gG0RCFesohlOlGBBS37F7FA31ApkcwdALhYOAJ0xTl47kDFLAR0VV0+QclLk3dVGNS9WeX6Qw0S8IWTe6pvZ1FqsZLJAn0URQkOqI7+jjx47cN7wuBelBAbMgO6qq6cJChqH+YIp1jU8vdQXTtN0GIryQ59ggOka4LI45eunmgJfX04i6Z5IzotXrd08XCrWpL5gxDYiNdiS2aNPuaAsqWjRNP7qK6fIYxf8+CGVYhYBeW5JKCryb1is9YhoMWiwCZ9C8Oujl5jI0fpygDQTtWupTZqlW+YBrRYFByRvq44pzTscxs5iuf0A/ika4Js1Zrpo7l/DSiyJTgWfVijqvx+oY0EsWqi6U33IcqWj2+VrnTFBGNtFVvoURR1IPoGWZkt35kEvqJp3gBfa+lDAr54dl8ddB+0YGfBgehXbA0lkLUl2U76kIBfuuQzBIbtzB3rjln6ekmR8kyCUS6zOjbNvUu2sCbXaT99SMBXZiZbtZCJCgzS1wnzG2AFdqv68Stt4R0LA5Dt/pZM1pYcWujjJ04WjKS9iEH6qhtnCfjKlo1Tnk+hXPCyfbpCaJMW+uI5/Wkna0uDDNJHjIbKbfMJsCABX7p6ItkyybxB5Jq25NBCHwroysr2GQbpY4j15cLqfRvBqjIG1CivJjig/LtJZNalYZ/XpURgC23CST3Ec/qR69BCH3/RQDCM0STj9DHrYa1acTq+dMlnkIBftTOMMCRt/k3J/MFksuob51AU1YsL5em/6stKEL2WfIKihb5omjd5tYNgJBNJO9HHTEcQBFYpCMNQZMQSuQd2E8/6pHL7IlirJlSu3L6IUJkW+lib1VGrCd0xnbQrffJg1LfOQ/4eBKC1STvJNbEcfYWo7Nvx+OV7GulDAr48fX9LXTORzyZ9vRQSTu5JQA8J+IqTB8FQ1XezKzbNrI5ajV8SUJ47BLTopQ9N9LTnpS+b9GtjwwFEvCCe3RejD6sUoqkfYkXS5QLgEuWZBFCfZvoCfvm6ENAR0wKb9Cm/aSEBv3zjdGzY6ttZgLIw6H1sUmiolEATuoB82ukLg7pTXpEw4QnW6OvEBYAgXhCFeMGahof0YI1KPNMHKwV3H3WiZoq004cEfLstPrNHvyQXDx0vawvvgGsfWKWoS9mtyIiDdRoQffiZDxP0FRmxoC9GBdbo68uFeOIEWTJ/kFFRQx65UV5tqBCLv/gnqM8EffUtO+17YI2+UVkLCFIKyqxUAn317Sz8Fh1Miwn6eilE6JqhJCP0YZWifF2wKMQL/6nYOgd/9kBRFL+tiuwA2c/Ljcra2thwWcQyfYUIRdGqHV+Sq9FOXzi5J2I0MISb0Cwj9OVHosmYyMvoyrOJlNUgf4+G6VDjhZhk7gDzBpPGJF6Ldvq1seEERswlGaFv3tkR0BXPyLyPLOh9XUkufiSKE/sJdbCkrjgHgWFZ5OqypaMfXTiszEy2sEGKdvrVMRvwRjIqM0IfRVFt0V3lmYSmz9lEnfABfiRmD+Gm7cANpYuHkw98ycKhoAJBoJ0++RjFm02vzBR9q1ZWbJpB4FgdtVp953fyMhyKojUHthAqgyQT9EsXD7dqPy0V2KGvl0LkwDdUSsCQjHKZ8nwKmHsgsFFXkle+LhhABwIT9CEBX303GxjDnMAO/ZrYbQAfEGQRy7Bxmpd3sC3jAV3x97vl6RTfEwzRrwyfzxx00DI79GURywB0IIABy4/FgMyy5eMxW3XiAsINMqwOQ/TLvh4JGDEnsEO/amcY4IsJ4jn9DRVibJyqqxmgVBa5CstsaXrKEH3J/MHMQQcts0T/hyWALyZIFg0DNiEwLD8SLZk7oGLTTLCsb6yTUT5JwRD9Fzn2KS/HytdOUZ5rcWM3YtCJQ30JPoMEfIboV+9dC6KBOYGd2DfKq6HAbmSUkL+7vlxIGK1eUlS+PqRs6SiK+ozRV9+5QDCDiSQ79FEUrdw2j5Kmtuiu+WKt4BYmoCgqXRVIWRPLZCL2S7/yI1/xPa/0tYW3K8PnS+YNUpw8AMagE+ZT3tQVTu4JLsRq43fIj0QLJ39gV/r+7sDxwFqGBAZjH4Fh1fUzzSI3oCuib3rMSn0zEwr0tEDWliKaY9/fXZERxxBrcrOnvxiWv3IS/W+I0Ush8mb8sm/GECzQ5F4Wz+prC+WW6tBIXxjcC9u/RTCSueTZGUNLgnrQT5+wJ1kU4lUTu43ydhWi05ZvnN4SXKv5dNEvXTLCqLT3m0eZOvMoTh7EwInn9Jcfi4E1jyxEUM3BrVYpt1SBLvqV/55rwUKGipiij6Ko+sY51dUMWyYPjy6ltwTXaj5d9OtSIhhCbKFZBulb6JVQhBgNbT7700WflVc4OAR9FEVrk3ZaDXPKCrTQl+1ZSQgI+yQdhT6sVZN3h1PiJmS2n75k4VDyZumXiz6KomYH2PBuBiJ93PO60uUCQqnVZOni4aycczDvOkrsY9bAWrU8LQr//hir+CQLhoA4Ld8w1Wr9pgqB3WoTdthtyyYwEi+wRh9BkNrEH8Sz+1ZuX0R4Y4j5IvnG2bpDu2oObKlLjrC87Qe/GEl58wvgFs/0kR/dW/3LevmxGPM7rkjPceC52Edmhz6CIPgb5briHAujJT/7CIAKg97XS4qALqx5JArxAqUEQZ7ucK9UZ4E+Ab0wuLexzsrj1HXJEQSU5qS/h/J8CkCPCdr8m5SLd5XfLyDUdISkvemT0PfSFt62BYTq2unSr/yAD8qWjdPm36RU1JXkmZevGze+SeYOdMCoxyy3N/1H2UcBQeEUW9EDykZlnV5caPVYQVHUKK/WleTqS4uBrgMK9qYvT4vC6LcBvQPia6dJ9qaP6LRVPy6Rrgyw2x2MdgJiVN3e9BkdzHPXOEefTZdx9Dn6bBJgs28u9jn6bBJgs28u9jn6bBJgs28u9jn6bBJgs28u9jn6bBJgs28u9jn6bBJgs28u9jn6zQnoslf7vOnMc/m718zYEsLvo8DCPaPdXN8c9v2DxgLNsVD3V1w7hSTWNW8FS+myV338hhOv4c/Z9bW3PLxHzFwfe0PGzlvHm9voiLGvip/4OobLqXNQrLQZJmP+tkGuPNd/rL3d+BIXrHaHMb9Q3pnHSp3f9Rk5duzY0X7D+nXv6GJu+9XeoSniZi0352KflMPSd+rk5dXZmefS68tz+Pento0+zjew8sFvs3q/wuM5u4ceozxc7AO+vheHpe/sEbp70+DXeLzXBm251xjnKNpu+uZR1xwKeceJ59x14dmmx5jsyLypK8el3yX0RNWZRR+48Jw6+f8KThK00DfkbOznyuO9EZTQ8PLDJh72lRyWvhM/NF0Dlx4IfMeJ59JjQUbDSYIW+pqTc92dec6ei85xsU8Kt/pvSqf3QtM1KGrI/ffg13m8V/tvvFP/c7A00Nfe/2lUJyees0focfw3CskMO2Q4buxj9FFUeT6styvP6W1BjBBu63nfte/CfQkJCfEH925fEdy3kwuP5+I+cX9x46TVDpypu3B8+ihcHj/5PSees2doeg1qLGjLjLNxvl//3+n19z9bmvCA5VN+vTueA/rmgN8x7E0e72/91t/WFIQPbv183/XjWT9ERkVFxxxISr9UUN00haIOSbvlPhf0UVR1cflHrubZz76L4UNaTx8337cbWVs6ek7oo3BVygx3Z55rr+CpAzn6tni2rXXwc56mNoxFEX5uTjwXVxdeq1cauNhv4mhNoqaPopqra3w61H9xktd5GlZyxjb+jfP/OkFoRFFsnYejb415U7nm6Jz3XDv0+jqLdC1Ul73xU34HJ9fOgftLG5fItFnLvF5tNqnBHOSz9qYBRevbcn17SgLbSzpNw8NJjnjex5n3goscfTYdTE3/YVLkkQAfNu16Ofo204/+F/H9PCWpMYfHf/RyEGBzlOlTh9zfF06kX3X5dPzAtwwa4k+9sWnpC9c3AsNJw93FJ+KJ9FFFdZyvW+Xdqy/ckB1oQHKoIM7XTSsuJNI3mUxHJnx8a9d3DmTsC2dK7v4dyX6ez54+oaBfFL872c+TO/kw5HTYaEwTeOdEbgLoTSYTDyT+MGiTPvW4FbGOoe5f8mbzDu5MGNIZlcsA8Gb0TSaT5FRS3ICOFbcuvuSkaB9+TUFOwpDOD5Mi8eiJ9E0m06U1s5M+9ajKuU67BS9tg7UP76eM7HF+SeBfz55Zof/s6ZPsFdOThncpSrPrD8++qL6BMlKS/TwzF0/43x//IaCniH2TyfTs6ZPc6C3xA986s2BcaXYGAjcub72ohJgZl/RaVmbYpDhftzs/rqJET00fc5G6+P6FpWbl1LG9LyyflhMTnp8YmZ8UxX0sEUiMzNm3/fdVX6QJ+sT5umUuEijybpBDHuQ0zXlAFl4wyqRFiXsurZl9fFK/w2O9Usf04j4WCBwe63Vs4icXV84ojPtJJ4XwJCllK/QpdbhMughw9Oki2ZZ2OPptoUaXzv8BvlknkIuq0sQAAAAASUVORK5CYII=;" vertex="1" parent="1">
          <mxGeometry x="864.9967672413793" y="284.9994612068965" width="127" height="126" as="geometry" />
        </mxCell>
        <mxCell id="ogiFnDlVl8c2z2j7Tte2-14" value="Deep Learning Model Trained in Spacy for NER" style="text;html=1;align=center;verticalAlign=middle;whiteSpace=wrap;rounded=0;fontStyle=1" vertex="1" parent="1">
          <mxGeometry x="853" y="429" width="151" height="30" as="geometry" />
        </mxCell>
        <mxCell id="ogiFnDlVl8c2z2j7Tte2-15" value="" style="shape=image;verticalLabelPosition=bottom;labelBackgroundColor=default;verticalAlign=top;aspect=fixed;imageAspect=0;image=data:image/png,iVBORw0KGgoAAAANSUhEUgAAAI0AAABtCAIAAAATeHVwAAASE0lEQVR4Ae1dC3gTxb430BS9x+PhfD5CqQhc5CXHByL3iOIBPR4NRVour4I8BAoKcuAKiGCBchQrIL3Io8AFFOX9lFveFUEEESggUPJq2qZJ26RN0jZt806z2T1fmmYz3Z3ZbJJNG2Dz9fv635n5/+f///12Zmdnd2YfIPjf3YDAA3eDk7yPBM+T9yTwuBxWaZ6t4HeHRoGZa2PwvGg1njBzbf2VXP2OlaVfpDlUstaFxqlVScQi8k+a0lWZNqBk4Uhd9kLT2YNOrap13SOIlm1POOY2XztbsXlx0YdvSIZ0IHExndnXukA4SpWkM1BBPqa3JmNCzckd7tqqVnG1hdqTVXZNl71QPqY3FIXKbz5vleDJSh0qGdQxSGJSQsmikTUnd7rNJlK9BYTo8uRxOWtO7lSmDYAEDPQzmowJLRAqQxX2onxmD+m50uTOuuyFTp2awSyHWdHiCbOajQfWK8b9hR4hPUU55b84DCkMUzbFDbpXrFKGdChdPtVWcDOMSkNS4Z4nHMdNuXtQXRw8+CEdPC5HSH5zW9gquQp3DGj0zAXKVs5oqK7k1ivQGsc8OUrkqnnvMIcEzbWrpKBbLSxb8i9BvQopUTa8q3H/Wo/LGQ3nOeMJs1kqtiyVJHUMKTaycO35I9EIj6VNu/KWau7Q4jlvF0x6SfrOk6RXYQjKqS9Hoxvkhier5Kpi/POhRiUb1UPzr0lVhzeZb5yPnbtLHMfdJqO98LYpd4927bzCDwaBtxCsYhyaaDyUjeM4y7OETTEOeKo9f0Q6rBOrABq7e+W0Vw1719hVUtzjYeNiq5fBLHWmswc1GRNCamrq9DFuk5Er5yPlybh/LUuGpClddZsW24vucOV6y9vBrPU1p3cXTh/IMmTFhBccajknfobPE465tV/PZeOxfExvw+6sFr4x5AQdqBEcx815Z1QLhrOJXTbiaWv+b1A7ISWGyRNms6jTxwR3NKljxdZlmN0akk93S2Hz9XPKtFeCgiAd1qnuQk6EQYXDU4NRVzhzcFD/VPOHcdXqIwwyeuq4u6Hq8CbZiG5B0TD9dCASN0LmCbPUKae+zOyWfHQv05l93A54Igky2roufWnxR0nMmEiSOtZfyQ3bk9B4wjFMnZ7K7JAy7RVXhSZsh+5SRRxz67/LZB7BS4c9Ffa1KjSeKrd9xkyS6uOU2LkTannKzdfPyYZ3ZYBINqKbvVgShmMh8FT78w8MHkjEorJVMz0NrjCcuJdU7EX58rF9GIAqmNwfs9SFGjJbnuxF+dLkzgzV679fEWrd92p5V6WG+VGOZtnEUC/erHhy1xoLJvRlIKnm9O57FfTw4mqoqiiY1I8BMePBDSFZDs4TjrlV85MZquRbEhRxp1YlT0V3gEkJNvkNqCI0MThP1Ue/YSApjCYM9eOeTLQXSxhurQpnDMLdDSwDD8ITZq1neOJXOH0gZjWzrOn+LFZ/6STDWW7cv44lLEF4YhiIy0Z2j4UXpljG2YrFKrZkoKiSJnd2VbK612TiyaUvRT6wGNLBfP1cKwZ/F1XtvcCjn3Grl45nEwsTT2Vfvo86EfTfZbKxzpfxIeCq1EhTuqDAtMmvBwUKyZNNjnwFRzHuWY/j3pwCD4pX2AWMB9ajeCr5dHRQs0ieGCYW+buloLDSC+CYu3DGIBRVVmkeXQVMgfNU/9splMXCmYPvluflYJyxIFuleShUSxaNYvYQzpMmYwLKouX3X5gt8rkMCKgXj0UB69AUMChCeHLX10iGJkLNqZeMY7DFZwVFwFbwOxRYiVhU8X9LGNQhPNWc+B5uKynBoVEw2OKz2CCgXjIOCq98dC+Gpw0QnlTzh0ENqdPHsPGDL8OMAMO7t7W//D9Kl8qTS18GJUkiFpnO7EdZ4dNDQgD14oI6PRVlh8qTcf86KE/S5M6YzYKywqeHhADqXko6rBPqxpTKk/c1XdgihdLMaSG5whdmQMBtMqJGaqh3XZrx5CiRQ0mSiEX1l08zVMxnhYpAyaJRUKi16z6GmmrGk/HQRqiybFQPhqEI1C6fyIxA1Q+boVAXTHwRqtiMp/LV/4Qqa9fOgyrziWEj4CwrhEItEYucuhK62WY8Fc16E6pcf+kkXZNPiRCBgvf6Q9Guu3iUbjnAE+7xoN4o4p8H0oGLPKU8aw6UJ+gzowBPlL0uSBPS5M78xGvkrNAtVOdsJUEGBejkXIAn1JP8ollv0uvgUyJHwHrnMkgPKSvGPUs3HuDJsOd/yaKgUL76n3Q1PiVyBDCrGcQZlDFrPcV+gKfSzGlgUVI2Hsqm6PCHXCGAenvVWVZIqSLAE2o5I/++CgUyDg+L54jJ9gAKlvxLlFoCPElT4AsNGow6ig5/yBUCmmUTQXpImb5LQ4AnSVICWQ4UcMzNlVvN7ZjPZ44Wv/UP4PfWsCVsZqc8VoPWYAmslffod4x8/EHROP90PiWfzG7RjaOax4o40q77GISalKuObKFoNPGEYxhZqJmQlEBR4OwQU60eKGzzaN/k8RP8v4lpWReC23eenpYY12Hq8cBGO3U/ZQwdnJJ50adLy/dn24LbbuES+l1fNUPbPwNOf2W/iSePwwpVkKZ0iZbrjTwJ+2bcDtJcXTZH8xKOk2kJcU+8dzTAU3MXg+X7S7ttVgfmPwD/Yw6LxRlormAWxzLqAUflt8spNTXx5DaboDzJRvWgKHB2yMCTK29l8qCZ+6QXssY+/5hQIGgnemnKtxIvL9bTn/ytX4/HhQLhYz1e7Nev3+uLzzkJwpX3VcprI9bcROT7s/10O+T75r7d889CgUAQ/9hfUpaeKPXTVZe3YcJLCQ+1EQjiHn7qtYWnqqPMFmo2tmJLBgVnP0/1NVCe5KN6UhQ4O2TgyXFsikiY0KN7Qu+Ry7Yf2rd2at9H2jw04Eupm3AXHFm1dFK/R9o8/OKEJRkZy7KOFmEE4S0flzj9NAHP92c3bhDl0f8wuUv8o698tOPCHdmNk2vGdH/wD/0/u+FdBum6vKCXsP3ARUeuy2VXj29K/+KINso8oR5QVGxdRsG5iSfMWg/lSTaiG0WBs8NGngTx7ROebPp16j5+l6ERGC+wbdv1nnFc78PJcX52t7j419f7YKP3a34ifL7R8v3ZXp7c0uX92z38xroSsgkdHv+EsMssb7M0bH4rXvjyCqU/i7NQkYaQ/R5tg0//9clph/IkGZoY6gpFpFOUjEae2ia+NTfzS99vRdahO75rDgisV8uj3/SPeOELTZcyGg9Ae/KWpuUD5jwVG99sF9dtfHbOsabf0a1TesXFv7FB5yHc1xY/Fx+XMHj+zmsGfx9JcZrjQ+8Sef/YART0O1dRamriiSAI1P2Tu76GosPNYZB+z9uPkTvZVW8VtxM+t+RmI3o0HkLgyZ2f0VcoEP7x0ceB3xMdek492Hgpsin2zhn05IOCNv/RefCMrddqo9ztEaiNh6pztlFADvBUMBn+OCRa7+y1Ck9Y0coBQuELGbcY2ouj7OK2ua8nCtsmvHsoygMJ5H0u7QWxAE+quUPBpkfKlptN9yUUhiM9DJsn5+npiXHtxx0KjMv9HZvPJVq+P9vbPB0n0hLaPpK0rSJIU6nbM7J9XLc5v0R3m4Xij4aQOIOC5favFHgDPJV+PgUsSsqmswcpOtwcNvIU13XM6t17/b99B84XeY2DwDZW1qzfc9/KeEEY131ajsaozld4hxr+8j7HaPn+7MZu1PHrx8/ECzslr/5Z410a5KouOL/7651XLAThur5h9uKdl7U2grCpDqf1FP7hzezSIHRGCAVqoTW9DwvwpMteRHIDCtHaXNxTuT2lfRvBA8BPIPxr4/I3Z+4Hndr95+yfyetT7Y7hf3yw/3KJr7fCFBuHiOK8moI/pR6wEYS/fBNq1Hx/dpM5a/62957/c5xA0FbYLj5OIIj7U+9Zx2sJAlNsTk5sJxDECYVtBYKHug5fdzOqi7waqitBnAPykA70HdYCPFUf2x4oCgxC2KyiivC0Cl0dq5b/cjznxMUCE3wQHSzfYy27df5ETs6Js1cVBvJ0aGxev+UezTl5UWaIbo9HEIQ57yco4MqpL9MBCfBkk1+HqslTn6Gr8SmRI2DYB98KtDRzOt14gCfvFB/wzQuQs4aqCromnxIhAqVfpIEgk7Jx/1q65QBPBEGgdmesPXuIrsmnRIiAcspfSW5AwXztLN1yM57KVnwAKpBy2YoP6Jp8SiQIOMuLSHgpQkONgW65GU+m3D0UHd+hfFRP/tUwOnaRpOh3rIRDPbYP1Gwznhpq9FBliVjEZo8DaAV8IhQB1OxPedZsaPlmPBEE4f2CFjAoJ2Xdxk+h+nxiGAightYSschyE/5Em8pT5Xb4DK53yUarflImDDhiVgU1paAY9yzq+kLliWEbltpzh2M28rvIMRxzo7Zgq9iyFBUIlSeCIFAv8qkWDEdZ4dPZI2DOO0NeTSiCvSgfZQfCU9XhTRR98jCkLRhRVd7n6SWfjibxBAXltFcZkIHw5K6tQn2YhWFBNkMdfBaJAGpOTyIWGfauIYvRBQhPBEGgpjT4ATodQfYp3q2o0N+6Yd4wEc6TVXYNbJKgXPLJCPae8SVBBKqPfQsiCcpBUYXzRBAEw+do+IEfiD5LGbPUoYZ5ErHIrrzFbAfJE8MAXZ7a537+OAMzoKjciq3LwAYEymVffYjSItORPDU2KeQnT7RfzyVN8EJQBJxaFWpoJk3pwmZFDBNP9sLbqCdS3p0/fjsV1D++AEEQmN2K2uVGIhbpd6xkgxITTwRBoGY4JGKRbMTT9+H3g9hgCpbBcVzzr0lgLwfK7HfaDcITZjUr3n0ONA3KRbP+zk/6gazQZf33K0DEKLLpx710FWhKEJ4Igqi7eIxiHTws+/J91NQhtL77KrHuQg6IFUUumvV39tAF54kgCM3nkyl1gIe6DZ/cV+izDNZedIdhz3LpsE4hfbaaFU+YpQ61yYuPMPr6N5bB3KvFnDp1wcQXwbOZIof6WUlWPBEEYS+8jfyGQ+Nzxcrt/BcCms46q+SqfHQvCjHgIX0ZWtDzlS1PBEFUH/8OrIwul2fNjtqi66CBxEqB2nOHmU9o9eKxOAZ/O5QhhhB4IghCu3YenR4wRZ2eSt9LhKH6eyzLsGs1iAZdVqYNCOPjhARBhMYTjmGly6fSqwdTCia9dB8+pvI0uMq++hDEgS7LRjztLG9c6BD66RkaT961fQ0u1J6ZAc+SOhr3r2U/6Azd7djSsBfeLp7zdiB82ItAksi+xBQyT76JENTCHdDX4jlimyKET/DFFvbsvHGbTdr1Cxhm13yASIc9FeEn3sPhyduqHFaGT0WAbJVnzYa+4MkOh9gtheN4zaldzOM6Hw7y1D6RXwjC5IkgCBxzl2fNBilBydKULrrsRffMZKCnwWXK3VP4/muoeMH0wukDmR/UsjwTw+fJVwFqxTboa5OclFCaOc1y82IYo1KWwUS7mKtCY9i7RjHuWUh0sGtSyaJRXI1+I+XJOwF46YRsVA+WrkvEInlqH+36BZbbv3pcwAqxaGMcgX1HqbLqyBbUHmyowLVfz+XwbpIDnryrXA3lDJ9KREUifefJ4v8ZUrF5ce35Izb5dZdRGyNNzW02mfPOGA9t1Hz2HsPDclRckqGJnG8uyQ1PjZcrTL9zFepzBMiQKN1FUoLi3ecKJvev2Lw4ggYQqWr9lVy2DlP8F4tKFo50lCoj9YCmzxlPPsvO8iJ1OvJpPfvgy1bOoLnacgkMi5MYQlCMfz7CwTdDhBzz5Kup/vJp1LoRhjjBLNTyEoZIOMzC3Q2SpI6gP0HkoYmV33xOX6TOoUtR4cl7g+Vy1pzerZz2apAIaf2Gr3yrvyejTBvAxnNpcmdd9kKnTs0hJVBT0eLJVxmO4/VXclXzk9nEDJZp9WePqB1tSCflqc8Ydq1211VDYeU8Mbo8ke46NAr9zlXsm5duUzqp2yoC6nU72fCuZatm1l/9EXc3tKRjLcQTGZKjRK7fuapkwX+jtifznbBhPEkjq+BEqDm1i2w6ErGocMYg3YZP6n497nHaObEfqpGW5on0D8cwe7Gk+vh32rXz1Omphe//TTbiaRIa+gappGLLCPaiO2UrZxh2Z9Vf/TEWXv5tNZ6gcGN2q8tQ7tSpW6zfh7oRg4mxxVMMAhQjLvE8xQgRQdzgeQoCUIxk/xv3/47/sm0UZgAAAABJRU5ErkJggg==;" vertex="1" parent="1">
          <mxGeometry x="1083.003318965517" y="293.0004956896551" width="141" height="109" as="geometry" />
        </mxCell>
        <mxCell id="ogiFnDlVl8c2z2j7Tte2-17" style="edgeStyle=orthogonalEdgeStyle;rounded=0;orthogonalLoop=1;jettySize=auto;html=1;" edge="1" parent="1" source="ogiFnDlVl8c2z2j7Tte2-18" target="ogiFnDlVl8c2z2j7Tte2-20">
          <mxGeometry relative="1" as="geometry">
            <Array as="points">
              <mxPoint x="212" y="959" />
            </Array>
          </mxGeometry>
        </mxCell>
        <mxCell id="ogiFnDlVl8c2z2j7Tte2-18" value="" style="shape=image;html=1;verticalAlign=top;verticalLabelPosition=bottom;labelBackgroundColor=#ffffff;imageAspect=0;aspect=fixed;image=https://cdn4.iconfinder.com/data/icons/basic-office-1/300/business_card-128.png" vertex="1" parent="1">
          <mxGeometry x="156" y="737" width="128" height="128" as="geometry" />
        </mxCell>
        <mxCell id="ogiFnDlVl8c2z2j7Tte2-19" style="edgeStyle=orthogonalEdgeStyle;rounded=0;orthogonalLoop=1;jettySize=auto;html=1;" edge="1" parent="1" source="ogiFnDlVl8c2z2j7Tte2-20" target="ogiFnDlVl8c2z2j7Tte2-23">
          <mxGeometry relative="1" as="geometry" />
        </mxCell>
        <mxCell id="ogiFnDlVl8c2z2j7Tte2-20" value="" style="shape=image;verticalLabelPosition=bottom;labelBackgroundColor=default;verticalAlign=top;aspect=fixed;imageAspect=0;image=data:image/png,iVBORw0KGgoAAAANSUhEUgAAAIMAAAB+CAIAAACI8zX2AAAJBklEQVR4Ae2de1QUZRiHh4VSuyyhFlnqSfOSmcnZIPKWJlko5F2TVDppaqUpZCp2sSLR0i6WHjSXOygiomIKyUUt5WJiCCS4qBAosMCyN0WL0unsrnKZd5jdWZj9dve8c+aPnXe/7/vNPM/M7M4OZ6BonKyDAGUdq4FrQZtk4p9rmtqC36+ePn4lJxNnDgJXc4/V5OfcVCrM2LO4TFyrrjz9w7qEqRKpRIwzLwK7Jz19MmRFw8XzpithN9HUeO239cvD3B+KmzDw5OagkpTEGtn5+qsViqpKnLkJyC/LZBmHcrYG75nsJpWIjwbOaayrMcUHiwnFhYJ4n6HRLz1RkBiuVjZocTKLgEajkaUfjPcdFj2ub+WpNKMymCbqS85Fj+ubvHBiXUWZWSuAndoQUNbK04MWhD/fo+LXVG4ZbUzcUNbHevU/tMhHWV/bZjxc6AABjUaTue6d8Od7KEqLOGS0MZG2cu6uiUMa5NUdyMWuLAQ0avUB//FJc0beampqT0aLieqzp6QScemxIywjYanDBKqKC8I9e5YkRRg3kb5q/v554xiJ5ZvfL/J2FWhmZBFZFGjTirxdSwN8GFuUvnbBvtkjjJhoarwW5uFSkBjO6IwmzFYFTZTnnpBKxApZIauMO2cnw6mpprQYTZiNntERmlCrVBEjXUuSIrlMFO3eHvPSEwwNWq0WjwkGX9MXoQmtVnvAf/ypjR9wmTi7Y0PCNAmaMB200ZasJlKWz85cu4DLRF7o+r0zPNCEUb6mN2A1kRrol7Hav3NMVO3fCYVhpS43gyEJTZDZK9AEGe4wFU1AJmQqaIIMd5iKJiATMhU0QYY7TEUTkAmZCpogwx2mognIhEwFTZDhDlPRBGRCpoImyHCHqWgCMiFTQRNkuMNUNAGZkKmgCTLcYSqagEzIVNAEGe4wFU1AJmQqaIIMd5gquAkYiZWOEDD/bzs6kop9IQE0AZmQqaAJMtxhKpqATMhU0AQZ7jAVTUAmZCpoggx3mIomIBMyFTRBhjtMRROQCZkKmiDDHaaiCciETMXOTKjKcpN3RUVGRsXs+SW/igxSM1PtyoS6+HuvB6k7k+jRN+KvmEmFRDd7MqHKXz+iy10RFOXgMllaToKpeZl2ZEJ1+hPJPRRFOXQTi530QsTe2y6qzeNi+V72Y0L564dDdQIcuk/dFOx1v17FfWM3n7cVFXZjQpG2bICjTkTP2bGVF7dNFOtVdHnhy3yV5fdvcxLtxUTdobf7inQiXOfGV2u15Ttfe8hB58LJ7aNcpTlgLN7HTkxUJ8zvpRMh6uWfWKODWBE1o7tBxZCVJ2xChX2YqIye2UPHXdRnYXKdYW+u2j3nEb0KxwFLj9ZbfA/nH2gPJtRlP/nqz0WO/ZakNEOv2Ws4TPR65PzJWLqHHZhQy36coL+ecxywLE3RArAueWEf3RmLEj06b4/1P7/Q9k2oi74e000H3HFwQGYrEVptfco7/XRfpyiH7jOiKloUWecrE0xs+YT1qUJWsj2qvC8879V/S3pm1UnGR7MifflAgwpnnx2XrfzCIjXQL2vBWK6nCp1bOGbvdHcr4Q5WQ5kd5Ka/oHZyW5vDEKHVKk+sHGK43H7g5S0y61aRGuh3zrcPl4n2nrQFoJAoKI4FPqXf6+9xX3eG5RJOmR003KCi6+iNhSwNSKw0e6YJZ6d2nnnGPp5lq/Wp7/bXi6BE93V3ZZ1cuuk/tSnqXo/P8qxZhU2bkO9/q/cdzrpPCiOT07NrssD5y7J7DleaLZuoin/DVX/xJurlOXNuu9Pskb0Nx43joBVtv1xxgbH4ezZs4q+IaXd+0Bi25hTHzq46s85d92s5RTn2W3Kk+crP4qiNBNqsCfWl0EnOer5Ow4ycdVRngw1fdCnRY/779D9LGaFC4m1bNaEu/m684R6E0/CgbI4jQgdVde7uzTyHh+fsstJbqjZqQlWwYVRXwxFhXIRWqyrcONrQ3MFlSph13lK1TRMtp37WCzp4clH/uelF/U8iFCWeaJ23VG3TRF2C/+NdRJSoay/vb027SFDLds7s3VVEUaJuQwJa/04IrRGq2KYJQrAEjUUTguLlMTia4AFL0KZoQlC8PAZHEzxgCdoUTQiKl8fgaIIHLEGboglB8fIYHE3wgCVoUzQhKF4eg6MJHrAEbYomBMXLY3A0wQOWoE3RhKB4eQyOJnjAErQpmhAUL4/B0QQPWII2RROC4uUxuPkm4H9lxv97ygpe8OfFoglW7rCIJiATMhU0QYY7TEUTkAmZCpogwx2mognIhEwFTZDhDlPRBGRCpoImyHCHqWgCMiFTQRNkuMNUNAGZkKmgCTLcYSqagEzIVNAEGe4wFU1AJmQqaIIMd5hKwERpwKTqwzGdMsPtsXylUzak+nBM+aZlRd6urefSAB+4OSbcPd0ewvqkLXjPrnVYB1/DFbV8pYObwNG9XRNr3uR6vtMf0q/3THaDINAEB2vut1hNHFk6/fjHb3OZKP15d7hnT7WygSEDTXDj5niX1UTCNMnvWz/nMqG8VCyViP/Ky0ITHHB5vQVNNMhrpM85l2Umc5m4fetWrFf/rC2fogleuDkaQxOFSVFhHi6NilouEzRNn9kWHOvVX9XQ5hmg1QfDy0IWCzQzrBNZFGjTykIWX4n6irFFSXPHpq+az6qBpmmq+Y3rtVURIx7J/uEzRn9c7BQCRftjpBKxvOB0M3DGixYTNE0X7QoN83Apzz3RKdk4SDMB+aUL0WP7ntwQwKDferGNidu3b6e+PyPqxT7wo7t5UHzBl4D80oV432GJszybblxvjZ7xuo0Jmqb//ftmyntTIkc/VpAQxjcS20MCpZk/x706OHGW5w1lPQM9Y5Fpgqbp//75O/ubIOlzzocWTZKlJ2s0GhiAFaMEynKOH/1wnlQizljtf1PdwOAOF1lMGBrVnM06vNhXKhHHvTIoZcXrOVuD8yK+y4v8HmduArmhIUdX+cdPHi6ViJP8RpVlHITQWSvtmjC0Vl4uyQ/bnPaBX8IUt7gJA2NffhJnDgJxEwbG+z6TsnRaXuh6jq9J5phg7YNFIQgYOSaEiMQxWQn8DxQpqhdaxpf3AAAAAElFTkSuQmCC;" vertex="1" parent="1">
          <mxGeometry x="299.99875" y="896.0024107142858" width="131" height="126" as="geometry" />
        </mxCell>
        <mxCell id="ogiFnDlVl8c2z2j7Tte2-21" value="Extract Text from Image Using OCR" style="text;html=1;align=center;verticalAlign=middle;whiteSpace=wrap;rounded=0;fontStyle=1" vertex="1" parent="1">
          <mxGeometry x="290" y="1036" width="151" height="30" as="geometry" />
        </mxCell>
        <mxCell id="ogiFnDlVl8c2z2j7Tte2-22" value="" style="edgeStyle=orthogonalEdgeStyle;rounded=0;orthogonalLoop=1;jettySize=auto;html=1;" edge="1" parent="1" source="ogiFnDlVl8c2z2j7Tte2-23" target="ogiFnDlVl8c2z2j7Tte2-32">
          <mxGeometry relative="1" as="geometry">
            <mxPoint x="730.9998706896549" y="958.999553571429" as="targetPoint" />
          </mxGeometry>
        </mxCell>
        <mxCell id="ogiFnDlVl8c2z2j7Tte2-23" value="" style="shape=image;verticalLabelPosition=bottom;labelBackgroundColor=default;verticalAlign=top;aspect=fixed;imageAspect=0;image=data:image/png,iVBORw0KGgoAAAANSUhEUgAAAIwAAABsCAIAAAA35s3rAAAQV0lEQVR4Ae1deXRTxR6mjwY9D5/iQU2hLiCyiB7ZHg+V51MRNS1i2QShZW0VsKDlqQiyUwUEFJB9U6QIZX2lFIsIgiCbgKVkb7qkS9okTZo2SZumyc19JwSuN5OZSe7NWnp7+sfM3Pn95vt9X+Yuc+fOtCK5v4hnoFXEI+QAkpxIzeBHECkiOQgi7GxVH9mqyVilzVxX8/Ne0/WzllK5vcEcdlQkGb6eRFjMputn1buWFc8eIXn3marti8NOh2xif6GAD/xLRj9dsmCc5sevTdfP2s3GsIAMdU+yqks1+9YWpsUJh8TS6ShZkBiW+OmNSpN60yFB0nExhWlx1Yc3W7UVdMNgp0Mkkt1o0GXvLJo1BBL5rR+vbFL/YIfq1b907LMoeJ7lhWlxuqxtoelbQRfJqq2o3DJflNDZM063krgYorHBK49BrSB5p4cbJI9Tn+dR8YguVdsXN2lVQQUWRJEaVSXlq2YApzXPOKmShkJhUEP16lw8ogsFhlliSGz5ylRrldJrE+wqBEUkwmpR7/5KNPQxRqEazhxhF0OgrERvP8EIMFBZNPRx9a5lhKU+UHgoP4EXyfjHKdkkyG0SEJJnVv3DCgpWWBK+d3pP8FSJLKmP4ez/Aos/kCJZtRXKpZMouEwTFes+CWxsTL1p9q5RZ6ys3DK/9IvkwrQ4581eXAzTKFz1lUsn2Y0GpgBQ9QMmkvHar0zP6eJhnUs+H6PNXGsWXSEsEfHYCNBkrzeZ8s5p9q4pWZAoHubt3sf9RkOW1Md88yLgkF02MCLpf8oQxnf08UcnSuhUtnxq3eWfHbYmdqDDYkU0NtT+nlO2fCoDteI7qDNWOhwOPwH7K5LD4ajame6jPPLJA/THf4iQsRbWxBEWs+7oDujwBJSHsuVTiSYr6+b8HRYirJbSL9+DIgMKC6a/UnvuaCQM0PlDFt3WYbfX/pZVMP0VIFJotnj2CLu5jm7OKM2+J9lqdZgRBAqreMRTuqztDrudEazmUtlht+uyv5OM6k7Fi0oUTHu5SVfFLi6WIlmrlPLJA1CAqPKyFdOa9Bp2yJqRlc1YU7HuEypqVEKeMtBWq2MRFxuR7PWmgvf+jYLiKpcm9TbdOM8CUPM1qbt0wuvAkmLG6/Z6E9MYGYvkcDiUi8bjFVJ8MIh112YaQETVb9JVFc8egSen+NPhhNXCCDZjkdS7luNBlMwf29zv3xgxCFR22O0V6z7GU1T6RTJghc8yE6n2XDa+edX62XfrPQKeR+Co5sev8URVH94MmGCyDESyFInxbxy0BzdiWmpph2pO/IjTKb6jWXTFR058FclWp8c/vtWc3Odjky2nmi57J0Yn6bjnbAatL2z4KlLJ56Mx7VVuW+RLYy2wjmbPagxvykXjfeHEJ5Fqf8/BtFTy+WjuOoThWrVhDoa9ut+PY2xdh7yL5LA1YZ5b5ZMHBHBM3ivc5ljBYWsqTItH6SRN7OV1ooR3kaqPbEU1IB7+pEUpa47EhRhzk1YlGf00ikbVxrl4PF5EshsN4lHdUN7rLp3Ae+eOUgwYr51B0SiMi7EopVRNz4QXkSq3LkC5rlgzy9MdV4JhoPybNBSZpV+mYAxxIjWqikVvPQr1K0ro3KRXY/xyhzwZsBlrJGN6QvkUCviWYomniasEJ1Lp0skoj5o9q1EeuXIMA4ZTB1GUli6djDJEimQplqDcSRN7BWPiEgriXVbunGLtPhuCylpK4J0JKVLVjqWUMZCoOZl5lxEXynAwdxCo2zy4SA6HQ5bUB9DGlVWkDvZ/ZkUoSYnAtlBvtMUju0LnWsNFMudfgCokFPBN189GYNjNC5Lpz99Q9NacOuAZC1wk1BsR2fi+XDfyJJFFCerVdtEnCZ7eICIRTVbUA2zVznRPF1wJCwaqD21CdSbPbzQgItVdzEXZY+7lWQBtySa2Wh3qGVT/UwbADEQk1FS6gmkvA8Zc1h8GSr9IhnYG5ZKJgFtQJMJiRn0Bos1cBxhzWX8YMJw+BBVJPPxJYAI2KJJZeBlqKRTwrZpyfzBxtgADtjo96qsNU945emVQJH3OLqhIRf99i27GpQPCAGr0QbP3G7p/UCTUa8Sq7UvoZlw6IAygJhUB43igSEWfDoP2JOhDVkCAtmQnqCEi2US3b/FBkVATZRsUN1sym0GK3WbQQruEUMCnf4XhJlKTXg23ie/AdGZskKK6+9xKxz0H5dycf4EK1k0k0/WzUAN58guUAZcILAMlCxKhnNPnMbqJVH14C9QAuI4FFmUL96baNA/KOf2p1E2kijWzoAbq3V+1cCqDF742cy2U88rN86hG3URSLp4ANQj7MhgkSZg1FRqTn8utBcQJRV1gEjU/74VyXrbsfaoBN5FK5r0LNTBe+YUyCE+iMTclNjpmyjFm3/UAWAPiBPDpd9b4xyko5/R3Fm4iFX86HGoAjFL4DYy5A8vx5A7Rj0w8ChHJVm+2+PZBLsYJc0SBsmiQ50E5lyb2pppwEwk1G9b3jzQovwFMmHNn/6dft4d5UbyHuvXt16/fq/NONzrdWyT7Zr3Z/UFeVFRUm4eeTViQU2onSUKXlfbK83HzTuhdp0aibH/qqy8mbcvLgTsJIE52rhqKRFCRhPEdKYduIilmvA41aJDnUQahT9hkR75aMKHf/X+7r2/S/IULF60+qrCThPrwpE5t2r+Y9sNvN8XXjn8zuuu9bfsvuWYlydpfZnTj8Xp8dMZIkkTV/nGxvJiRGRVWmJPQx+LZokUphXJe8P5LVGV3kWa+ATWol12nDMKTAM9UNlF6/3vuG7Su+M6JrvZQ4iO8TqnOPkbospM7Rd/bd/5lVXZyJ95DQ7bdrgU6CU8oQKuoqXMFU/96e+cmEmpQ1iz+A3Ad6izAL1G5cfA90V0SN2Rl3/47um1yj+g2g9arnGe5Wx0oum2Xbo/x2r22TnZHSMBJqGOAt9egyId2DMUHgygDN5GK54yEGtRd/pkyCE8C4NeWv7APL4r3j/YP0/4eiek+5YDOdSmy3VzSjxfVqnVs8vG/lp8DnIQnErBV1ChP0cdDqapuIpWtmAYVSZ+7hzIITwLg165Y8QKP13thng0Kh9DnvPckr/1TT7WPbvf6enlE9yTU+9nS9ClUbG4iVW5dCBUJeAdFGYcu0Zj7Xmx0u7EH79yCW3KSO7S+P357Jezx1vBLarc27QZ/K5V+O7hd64cTvlO6aoFOQgcf0xJqKE61fjZl5SaS9uAGqEiqDXMog/AkbHkLe/Oiu6ZkKbUl+VI1QVrOf9KzDe+xt1f9qnQulGfVyc7sWbP7kokkjWdn9byn7YD0PCtJWvPSB/y9dey7+26J6eEkPLG4t4pa40ydsZKq6CZSzakDUJEiYNFuu3RjHD86qlWrVlEPjNnvvM6Y87dP7PVgdFRUa949baKjoqIfeDr1mMEmWvZ82/v6zD1/e41D8/m5fdryuqadcz5aeTqheAhbAjUKrs/ZRWFyEwk1u1ia2IsyCF/CrpOcPZaVc05Wc+ciQxLmsrwzOVlZOacuSzW3nnC9wYM48WYS3OOM3yfZjQZoTxIK+OyWlwpufM3fu81QjSIc+WaWJEnZhH5QM26efjB+Eqj7b9mEf9KbczvdkSSpXDIRKpI2cy3djEsHhAHtgfVQtpVLJ9H9gyJpMlZBzegj53R7Lu0PA6XpU6BsA1+7giIZr56GmgnjO9LPkv4g42xdDNjrTagZ3cDaC6BIRGMDyrL2XDbHbwAZqDmZCe8PAj6wpCMoEkmSJfPHQo3LV88MIETOVfGcUVCei2YNAciBiKQ7ugNqLErozGL9UKA9LutiwDnFEbHHgu7Y9wBLEJGsVUqoSEIBX398N2DPZdkxUH14M5zkIbG2Oj3gEyISSZKoV7SKmW8A9lyWHQOK1MFQkaAr4MFF0h37HupCKOCH91U6O0YizcqilKHorf0tyxMtXCS72ShK6AR1BJXa0y9XgmEA9XgkHtEFOuceLhJJkuWrZ0JF4joThn1fDplvXkQRW776Q6gHpEj1kqsoXxHw5gIaSzModDgcqOu9cyGTP92+wqTiQYpEkiRqriTGHeWXS0AZwDzAKj4YhNoVBycSpmPKpzwPPXtCkXGFLgYIS700sRfq/ITZ2gMnkrMzfQafPyQU8NW7lnPsM2JAnbESpZBy8QSMKy8imYWXUH6FQ2ItRWKMa+4QnQGLUoq6YRYOiW2sKKJXBtJeRCJJEnW/KBTw5ckvcANFAKHQrM1Yg9nWtXLLfKgVVehdpCZdFWbbS/wKr1QzLTnhsNswVw3JqO5eF1b3LhJJkqghV9eZsPrwlpasgdfYVRvnIi8ZAr4ua7tXDz6J5CCIwo+QK4cK42Kggxle224JFZybuyJWXHVeL1IGOuzwWbh0cnwSiSTJxrICzP6qorceNV47Q/fLpZ1TA4WXMFt1i4d19nFpOl9FIknScOYI5kchSuhsFl7mtKEYMP15TjyyK4YxX7YScXljIBJJkqoNn2FaFb39RN3FXAplS07oc/fgt7AGpprguWImEtFkLfxQgNFJGN/B88UiHsFddtS5hfX2JTiKBPzSL1MYLWXLTCSSJG01WsxOPS5wqk3z/NxIupkqRzQ2YLYlcJGj+GAQ06XvGYvk/IRBXYqawUz9ghSprzWWFzZTrtnBbqquLPzwTYoBaEIy5hkWazuyEcn55bdS6nUvaVFCZ/3x3aiRXXZERKaVw26rPrRJPPxJqDBUIet7K5YikSTZIM/DbNxEIVPMfKNeci0yyQ0IKtON8wXvv0TFi0pIxz3XoMhn1yJ7kZwPTxVFmCEpOtzylan4MUR26MNr1ViuKFv2Pj1MVNq5hXV1JWu0fonkuo/AvGp0Ax0Xo1w6qV5ylTXWyDE0Cy+j1mFyC/nWWINyYZKfW1j7K5Lz+7kGM+pbDE/EQgFfMfMN7cGNLK6fYRfJWqXUZq5VTH8VGhe0sHLzPP+vygEQycWdLnunaOjjUKCowsKP4tQZK41XT9tNtWEXAAXAbqo1XjlZtTPdywOi5wBdfAdd9k6UW0blARPJectXJEbtk4HSiSqXpwxULhqv2vCZNnOt4dTBuou54R0MJCxm5aLx8pSBqMnAFHJoQj7l+QCumhVIkZxrkVjqq3YsRe3CAI0HVSge2ZXRzy3glTEDyijMQgFflNBJs28tYfXpC14fMQdYJFerjeWFqE8zMOEBhyRjevoYQ5CqoWYCAzjp2dL0KcG41gZFJBdrxisnC6a9TI+BUVo67rkgse+j27LlU30HXDD9leB9VhxEkW5LdfU05uUxhgXZ+L4+shmkapjJPXTYxXNGGq/9GiQMLrdBF8nVTEPBjfJVM7wOnNCDl0/+V1Aj9+rc8OthOh4gLR7ZtfybtNCsaR8ikVyMEFZL3YWfypZP9eWaLE8Z6JXHoFZoKLgBCCMU8MXDOpetmFZ36UQoh/lDKhLFKWG1mPMvaPd/q1w8QTLmGU8uhAI+fVU+yjCUCXu9yQVM8k4P5eIJ1Yc21cuu+zIlIeAgwyMSEIZVU27Ov2A4fUi7/1vVxrmlX6Y4n5k2zgWqhT5rFl1p0mtC3y7QYkSIBGDisgADnEgAIZGY/T9K+dB54atVCAAAAABJRU5ErkJggg==;" vertex="1" parent="1">
          <mxGeometry x="521.99875" y="904.9995535714288" width="140" height="108" as="geometry" />
        </mxCell>
        <mxCell id="ogiFnDlVl8c2z2j7Tte2-30" value="" style="shape=image;html=1;verticalAlign=top;verticalLabelPosition=bottom;labelBackgroundColor=#ffffff;imageAspect=0;aspect=fixed;image=https://cdn4.iconfinder.com/data/icons/basic-office-1/300/business_card-128.png" vertex="1" parent="1">
          <mxGeometry x="63" y="646" width="128" height="128" as="geometry" />
        </mxCell>
        <mxCell id="ogiFnDlVl8c2z2j7Tte2-31" value="" style="shape=image;html=1;verticalAlign=top;verticalLabelPosition=bottom;labelBackgroundColor=#ffffff;imageAspect=0;aspect=fixed;image=https://cdn4.iconfinder.com/data/icons/basic-office-1/300/business_card-128.png" vertex="1" parent="1">
          <mxGeometry x="243" y="646" width="128" height="128" as="geometry" />
        </mxCell>
        <mxCell id="ogiFnDlVl8c2z2j7Tte2-34" value="" style="edgeStyle=orthogonalEdgeStyle;rounded=0;orthogonalLoop=1;jettySize=auto;html=1;" edge="1" parent="1" source="ogiFnDlVl8c2z2j7Tte2-32" target="ogiFnDlVl8c2z2j7Tte2-33">
          <mxGeometry relative="1" as="geometry" />
        </mxCell>
        <mxCell id="ogiFnDlVl8c2z2j7Tte2-32" value="" style="shape=image;verticalLabelPosition=bottom;labelBackgroundColor=default;verticalAlign=top;aspect=fixed;imageAspect=0;image=data:image/png,iVBORw0KGgoAAAANSUhEUgAAAGYAAACACAIAAAB2oIuqAAAJdUlEQVR4Ae3da1QTdxYA8JBMUDCEGKFofdfiA0XZVHx0SxHFKgER6mNbC9XSRatu64pYfFexxWorR7S2aAQEFDAIxQVBVqWioKDUFz4Ag1GokiacZJx1d4/d9mTPJCTHjHORcWXZNXdOPvC/d+4w95c7M+FDlGfEjaMAj+P+uLsRyTgPAZI9bzLyrupc4pqSP71dMH/K9xH+L/Cr4P3JxUtmnvlime7GxfYVwSn7qaqseGm4QiY+GDTi+Oqo8oSY01tXvsCv8i0rTqyNVs7yVcjEBZEBqhIlBMdOdjMvTSETH/kw6GZx7gOSpOxpU50uLVn+ruI116rEtaxqLGRmr7M7N9oTFLPX2vz0fWMlrGpMsqbKvypkYjv3MvuZ1WqzvmPMGpOsaGFI4UehTHN7XZcnxGTJvX779dfH1WzI9LfrFDJx/fECeyVi9n3/5lWFTKwuKwTJKrfGZoeOefDgAbPUjtdFi8OOLg4FyQr/GFS2cYkd+7C0fiFl+4GpniBZ3juvV2xfy1Jnx6EruSmpE9xBstzZ4yp3bLBjH5bWa/Mz9o2VIBkLDRRCMkgGjCMZSAMlkAySAeNIBtJACSSDZMA4koE0UALJIBkwjmQgDZRAMkgGjCMZSAMlkAySAeNIBtJACSSDZMA4koE0UALJIBkwjmQgDZRAMkgGjCMZSAMlkAySAeNIBtJACSSDZMA4koE0UALJIBkwjmQgDZRAMkgGjCMZSAMlkAySAeNIBtJACSSDZMA4koE0UALJIBkwjmQgDZRAMkgGjCMZSAMlkAySAeNIBtJACSSDZMA4koE0UALJIBkwjmQgDZRAMkgGjCMZSAMlkAySAeNIBtJAif8xMkNNWmx0XMZlA3S+UNxSCOWfY7wzyUi1cmVI8McZdR3/NyK0ORHugj7z83RcW7QU0nWkKjm0Vzf32Wl3uR6lQ/t3JpnhyuYJBDE6rlLfoVOhd7J0/h+RUc1H4qa9Id9wTNPh38tlxy4la225r7HltCFr1TCy1sb0mhat7bVrKbTuwv5Dq0Zr+wvbdnvygOz1dLQryAw38j5718/TrTufx+MJJa9OXpZV2wZg7jxyj3LdDC8pweMRUq+wzaVq65WtvZC6dIqnhKALpSPknyqv2xTOzzN12loWL584I+GMSae1bJP89x+mVpd8PmsUfUhH999FfFOlbSMhbxdvCvN26+bA4/foM2yMj4+Pjyx4s7kSUOsCMvJWUsgw/6hNew+XnihVJkZ69+BLQxW3TSw0GV8ocnEdPC1mx/70pE/8PAT83nPSG+ksqTrw3gChdPyS5JJz58tzE8KHdHOWrSlvpVuzmTLLwnR50wvC49UhHkNDV+3OSP0ycrSLQ/dxn1XTnmRj6tsvER6B65Vnzp9RbpjaR+A0Iizmq4IbtiNsa9cFZLYnQN1LmekqGBBdZO3PgRj0h7Rr5pMmVXtCejo4ByY1UJS+ep3MscebW69a+mnOnOtGDIgupCstSqaDWxbWQ/Idh0YdUplnVXt00WCB0G8b/VDSZs6REF6x5eaLVX9qxQhCMjvjKbfA2vwMhUzcOd8tb//236q+fKqk4PChg+vfkgrcIw6ZLhWbZun2yYav/YX8flFHKLJh+yRHweC5X2fntG3ZOyM8BcI3v6qnm2971LKTPf4QJlWJAULC2/RQ0qSFuRA+q8+1kZUtH064hKU9nazTvo4PkZHqY/EzR0gIHuHkKu3Vy7U738E9IoedjNLsD3dxkMzJpPRn40YTPEIk7fXY5vaSZ2Q6favrOBml3hnoSIxcSd+vyPrvQqRE/5AthdWXqwrip/URSOXf0u9Ae1sXXJgteQv6CZzHLMysaaZPTpc3v48AJlPvmtqN//IHBZTh0qZxBOEdV2EeCUZTz0amOxHrLeo9bGRvJz6PR7h6Bq3KfxpYVzwx9edW+xDEhM8ttyTtoUgPGzK+6PX4atNtiKKoe9nzPPhOAYl1FKVVRnrwXd7a1cA2Bc9Epv8hZrjj4I+KdZRB09SsZTsu452hl50+ZYKB4ZsVKW1b6sGT9frGb6aL+G5BO37UUtS9quSI4c4ONhcmX0A4DZRvzKu5VV+xN3J4d36vGXtMTNrST4YJib7yzUXXWiiKalXXHFVs2XPiPt3HM5GRtw9G9CcI6RDZRL+AwOkhYfMWrkk+2Wh5vLBwdTYZeWu33NWB9/jmHJzcTLWUxQf0JhwIkbRnj54j39u2coq4X1SBaa50+QteFk2KS1ok60l/aOPx+BKfRVnWv7hazu6aN0oi4PH4hKNQwOMJxEOjDzXRfejyP+jrOGhRkalNy6LtkOaMZW6ppuRgUTfZuio9RWlOxfu5iYaFLF728ZKFUZFhb7wicujutaz9Pxs6c8qAd4kOk/dqT+bnKIsvqFnvTBRluFtzTJmTd/xSE/M9J1tuVBxVZmcr/3KyptHq0M7vAlNkXeLkHkLZWtNHNNNeZN02PyHhteIUcFamnbqIDGzjv5nQn101hhD6rrfeOA0NB+YNFLjKv237CMd+MvZMRhlqkoL7Cvmi/j7+0+VBk31fcSWcBs9MshIiGavAvUuFe7eu/3T5n2PiNiVmHL/+lM+xnfzEZD3F//+gXV+Yz/b2IRlnNyRDMs4CnAtwypCMswDnApwyJOMswLkApwzJOAtwLsApQzLOApwLcMqQjLMA5wKcMiTjLMC5AKcMyTgLcC7AKUMyzgKcC3DKkIyzAOcCnDIk4yzAuQCnDMk4C3AuwClDMs4CnAtwypCMswDnApwyJOMswLkApwzJOAtwLsApQzLOApwLcMqeP9l4/O+RGaj0lPn2BL/CWvD+5PItKxg1dr68mLk73b8/SFa6/J2ipeF2bsRo//SXscrw10Ay1bHcfWMlGlUdo8xul4ZWXXrAoB+TE0Cy33755cBUz4rta+zWiNH4FWXKPl/p33UakMxoNNYkJ6T79//p2iVGsR0udU13skPHnFy14HEvo9HIY6wfPaSOLAjMDBxi52q6pjvK2eNyZnj/raWZQcQkMxqNtNr8KZmBQ26WHH5AdvAr2C/UFDZWnFDO8mX1Ypkys+ijh9SxZXMVMnFW8Kjze7fdqalsqb+uUdW9wK+WWzfvXjx3KSs5d+5EhUz8fcSkJ+fLjMMyZdY5NKgbKrfG7vfrq5CJ7eSVMt7th3XRP1+9YEV48of2yMx7/+uf/yCbVNprNZrLVS/w6+erFwzqhkcPqSeNGJGnkzEKcIlknGfg3+rvowI446ihAAAAAElFTkSuQmCC;" vertex="1" parent="1">
          <mxGeometry x="746.001510416667" y="895.0014322916668" width="102" height="128" as="geometry" />
        </mxCell>
        <mxCell id="ogiFnDlVl8c2z2j7Tte2-36" value="" style="edgeStyle=orthogonalEdgeStyle;rounded=0;orthogonalLoop=1;jettySize=auto;html=1;" edge="1" parent="1" source="ogiFnDlVl8c2z2j7Tte2-33" target="ogiFnDlVl8c2z2j7Tte2-35">
          <mxGeometry relative="1" as="geometry" />
        </mxCell>
        <mxCell id="ogiFnDlVl8c2z2j7Tte2-33" value="" style="shape=image;verticalLabelPosition=bottom;labelBackgroundColor=default;verticalAlign=top;aspect=fixed;imageAspect=0;image=data:image/png,iVBORw0KGgoAAAANSUhEUgAAAIAAAACBCAIAAACHACU5AAAMuUlEQVR4Ae2ceVgTdxrHc0xArkADiKxHRUHqzaYKakEFxSpQxRalImiLRa222iIKpR4LstrayqN4rDVySIFAONSiCEVQlIIoPHKIQuUoslwhJMO03bZPa7NPEoIBJoEZZra723eePDyTmff9/mY+n9/MhH+GIYflDyXA+ENHh8HlIOAPngQjEoC1t7Tczm3Iy2i4LoKPLgK56c2F2dKGR78/ezZCsboE9DypvR21K9HNRsDnKj4vm16YZwYf3QRUrOIXjcv78M3W0oJhNeAL+AntKfjobQGfm7raoezc0cbi/J7OdgyWERCQ9UhaKkoeJJ+9/Ja7gM+95L9E2vhYhwYcAV3V95PcbZNWTHuck97b2zuCQaEEn0BLRUmm3+JYJ4u6Sxe1ORgsoKv6foLL+KvvekvaWvFTYSsRAqhMVnw8XMDnPs6Mw3UwQMCPkq5E1xev7lwr65EQGQVqhyFQeipSwOe23Ssa6mCAgLwPfFM8ZvZ0dgyTB7uJE8jZtV7oOfOXH7BBDp4LaK8oFvC5T27lEA+HjuEJiFuaEhZPeBD7uVYBN/ZtyvRbPHwSVJAlUHR0T8qqGc9++03TQd8V8OvPP12Yz6tMPU82HPqGJ9BWWyngc9srinEEdFXdUzwlHlUNHwMVoyCQ6GZTlRiDI+BRRmy8819GkQytIyKQvX1N4cfv4AioSjiR4jFjRBlQNAoCX+/bnPeBL46AB3HHUzxnjSIZWkdEID8sMHeXDwgYESw6ikAAHVQJZIIAArDoKAUBdFAlkAkCCMCioxQE0EGVQCYIIACLjlIQQAdVApkggAAsOkpBAB1UCWSCAAKw6CgFAXRQJZAJAgjAoqMUBNBBlUAmCCAAi45SEEAHVQKZIIAALDpKQQAdVAlkggACsOgoBQF0UCWQCQIIwKKjFATQQZVAJgggAIuOUhBAB1UCmSCAACw6SkEAHVQJZIIAArDoKAUBdFAlkAkCCMCioxQE0EGVQCYIIACLjlIQQAdVApkggAAsOkpBAB1UCWSCAAKw6CgFAXRQJZAJAgjAoqMUBNBBlUAmCCAAi45SEEAHVQKZIIAALDpKQQAdVAlk/s8LkJXHhwSFJlbKCJz0f1MpKQGyqi+2uLu54izL1h6+QfzlcmhHY11jO6qTS0d5UrjvK3ZWXH2OofmUlz22H897ooAuTvW3ZFtvzuzW2U1+J9pwbrW5vqVPPPkInZ3kBNQm7d34pq9iWbdsmjGTNX6hj/Kb74agmGKpzgFxdnZnbrJmjw1IE+PsU216mhvqZMZExs57M+TIydMnooL9Fk00MFl5uhGlXQDWeiX0VWePg7laD250O0gJ0BiyO/udSSy9VWfbNLapVqWdHeKR3RfE6QFWbAs/oTYBHVe32yIsa68zlRpu20qTkos6tF4B2keXdLR3auQMPm5Jp1jHXs1qrZXax9Zs71unQYD4ftzOZXZmCIPB4PCme+wT1cowDG0W7nCe7x6S9Z3qToM+SghycfKNKU7fvcjB1hxhIDzbuQ4ODi4h2YNuJmjTF15mTP0FhytwdQ6+BeGOjmGY7FHmoQ0udhZjWIrjMrN1251S0xcoKYzweGVLXNn1qDdm8RAGQ8/yr/6n76qng6Qw0mPha0fuKIDprsTQppwI79kW+kwGy8jaXnE6DnzPwzjUNTblhwVm+7uQf13N4CsAbUjaOInDc9px7nrpvaL0I2un6hvyw4skGNZ6Zastgti9e60Nw9AnCeuskbGrz9dJypMj921wMGEazfXdGxoaFiV8MIhzp3CDORN5+WD5oO19JzFAgPbR0ScnveyXBEacz8i7kSeKDphtxOKtFjQpZ4MiArGynWo1bXXYmcS4TwLmmDDHOB4qU10J6gEU4+msRBvjXh+LWC0/ILpz747ooLs122C6d/BnlzVo46zmhwWmLzKnTIC0bD9fz2jxp9VqWq1frrdAJgUppjXanBowia0/d29BfWrAJIT3akxflc5bEFr7iTOHwV2b0Ilz9IMewrpGH9jdFrvGlD0p6KryalNgZelNC0xrUF2d4mvbbNgcl2N1/XoUT3lFgM5K8ZfrzJAZIUUqb9Jbe6YjZj6JWg67/3CovQWh3x5fqse2Wf+5MLVvEcb427E5iz+rV5yMcuKzDW1sxyOmSz7tn9I6BcgqIhwRJs83WX1L6D901Yp6gioM6x5dUS9prrx1/XJGWvKBFTy2pb/qua8RocxEG6JdOcjs0G+UKNV7FbvU6+q75IDKznhvE8Tho9I+AYUfvoSYeMf/ZwVIS0LnIAzEmGeusViMtQu42KyaXNLScAeEwWBZB6Q/PzKdArCmE8v0GPrup5pVwAf/1WCic3S0OTdyzXQzhIEYmPLMzU3HsJiW/qlKqxoRqvTmmOV6yMy9d4YVgGlWovX/8OIhE72OZpdV3r0c+ao1m+dxVjnxBh+z5ndqrwDZgwhHBJkdquWnKPqdaPNkhDdlCo9t6vpZ/0NVtwBJ3k5bNss6QIT/+mQNerpG78h8awLbcO7WL8tbFVOhO3OzNZtiAd03QmYbj7OfOc6AxWAgpnarwrKGxY9h1ArAxKIAK5bJilPfqia8pmoMe3olyJZjuvRYefmxpaYsc48zD1VVShqmPolabjKSG7vtEabZ8uiB/+3KWpq+kw68K2gfXVr6kQOCLIhSP5vEaQFWFAuQ3gx+Sc9me043Jut82irGAzAQh+obxQIwcd4uew4y3uPw1YeKGStpLr8mOPrFjXYMa8vZaa9nOG9/sQTDJMX75xmwrN+IU4qSFofORthTNwkfNtWUlPc9CTUOFm1IDpiMMA3svP+WcqumqaW55pbw75scrZ0O3JMNvC1rHR1tPL3SmGWx6kSFGMPa7p7zf8mQSfEtCG1K9p+IILyp/IUurstXenn7bQ0/V9Co/jWicT4DVkcrQJL3vh3HZE3c8/tDR8kpv1lmbAaDhehx2AwGmzstKO2ptOzQfEOjOcF5fYUdecFzDJGpO3IVzzNZ+XF3SzZDsXBfx/25012RsNNlwhimsobBYLC4tiv2CB/KMKw76+3xepO3qX7PYBj+6BiGdRRGuo5DmIgx7wWjF2ZuPLZ3GXdC4GXl03RQBIY9PedprM/ff1f5DFDvVWBTr6sfwgMqO29FulgY23u9u/v9HVsDA7ydpxgzx8zYPcy/0KMVMMBm/xe041HxNZFQKPqqoLyx/2j7d+OsyJrv56QJRbnlLdqnjKy1+ma2SJiSfr2k/vkjfGiYttHRtpqCrFRRzv1m1Q+VoZ2j2ILWRbsZcfgf9/33oPjNV3fMhYPM2KM7lB4Busf8v9wrLQmbi3DmHyhTzzfZt0l+L7JNPc7qPl0QoJvPyPfKyk96juewjCc6LFnpscpt/hRTxMBmzcl+IVqSQIAWMKQ2tz3IPv/pgX0ffhAcGhGdmF+r60bZNwAIIEWauiYQQB1LUkkggBQ26ppAAHUsSSWBAFLYqGsCAdSxJJUEAkhho64JBFDHklQSCCCFjbomEEAdS1JJIIAUNuqaQAB1LEklgQBS2KhrAgHUsSSVBAJIYaOuCQRQx5JUEggghY26JhBAHUtSSSCAFDbqmkAAdSxJJYEAUtioawIB1LEklQQCSGGjrgkEUMeSVBIIIIWNuiYQQB1LUkkggBQ26ppAAHUsSSWBAFLYqGsCAdSxJJUEAkhho64JBFDHklQSCCCFjbomEEAdS1JJIIAUNuqaQAB1LEklaRVQGR+d4jmLVCY0ESCgFLAO531B1Umnk9ztCCRBKSkCucF+X+/ZiCOgueArAZ/b09lOKhaaRkpA5ON0NzocR8D3Ha0CPrehaJhXHYx0HKjDIyDt7row/4WG3HQcAXK5PG2Nw82I9/AaYRs1BGqyLl6YZ/aDuB1fQHXS6fhXxkna/0nNaJAyhECW/9L8EH9N+nK5nNH//RcMTXSdXHhox5BG2EABgeqMeAGf21V1rx+4auW5ALlc3piXKeBzH1/PoGBAiNAg0F5Xc3HJxG+O7R1Ef8AVoNpXFPlerJNFff4VjXZYHRWB9rqa5JXTszY4//qvH4cX8PuzZzcPbot1NL97JgqVaX+d0qgO6U/UXJstTHSdnLXB+ede6VD6OFeAXC7//dmzqsSY2AWWIh/HytTzsm4tr9f7E2EkfKq9vb31+Zezt68W8LlFETt/+b4Xlz6+AFWprKm+MHxLrKN53EKrS5vcbh7eVRz98TcnDsBHN4Hbn4Rkb3st0XWygM+9utWztbRAG3rV9gEP4aGlP0q6Hmcl3I7adeWt5RnrF6b7OMFHB4GMdQsu+S8pDN9Sk3RG2vh4KM+hW4YRMLQBtlBLAARQy5NwGgggjIzaBhBALU/Caf8G2705q7wBxh4AAAAASUVORK5CYII=;" vertex="1" parent="1">
          <mxGeometry x="932.00484375" y="893.9980989583335" width="128" height="129" as="geometry" />
        </mxCell>
        <mxCell id="ogiFnDlVl8c2z2j7Tte2-35" value="" style="shape=image;verticalLabelPosition=bottom;labelBackgroundColor=default;verticalAlign=top;aspect=fixed;imageAspect=0;image=data:image/png,iVBORw0KGgoAAAANSUhEUgAAAIEAAACDCAIAAAAlCu8MAAAQIklEQVR4Ae2dCVgT1xbHR7F2s/ja1zbPiqJ2tbZqU+1CS6uvrxUQEOuuuNRWistTKlatrYrWlVe1VdwIoNBiUQSXp4i19Am2bojbJCELCQkkkD0z051KeV8cvBlmJiszmWCHL9/HmTvnnrn3/7tnJnNnCdTC/3GtAMR1A/jtt/AMuB8EPIOOwKC5qcksvVJdtKcqc8OlHWv4j3sFqnavl+zPNF67+Mdvv3qJ110eIBrlDxsX7Y3sKRKG5kQIChKEB8YM5T/uFdg/Wtiq2EsPnV6RbK6+6pEEPYMbTb9f3JaWNeRv+2IGXMxMr79WiSIIxv95pwCKonrp1ct5GQfGDBUJQys+nd/0849uSNAw+BWxFk95LSdCcDkvg5feO9ldeomP5OcO71MQNxDTa1xhIDP4FbEWTYzIj+6vl15zGZhf4YsCJo2qcPzL+2Kexhq0tBjIDE5+MDE/6qlGucSXrfC+HhQw67QHxr5wKHFY840bVAxtGCiOF4iEoTXlpR5C8qt9V0AHV2W/+OCV7M/cMfizubkgbmDZ8vd9j8/X8EqBc9tW7Y3s2fTLTyQMzjzQVpSKhKE6+LJX8Xgn3xUw12uzX3pIWpjlkkH56nnFU4f7Hpmv4YMCpalTSuaMcsmgaEJE+fpUH+Lxrr4rUJm9KW9YuEsGWUMfuF6Y43tYvoYPCtSUO3b4P5sNRAytx4PmpiaRMLS6pNCHeLyr7wpoq86KhKFonYqGwY3ff3MwOHHQ97B8DR8U0FadEwlDEW0Nz8AH1Zh15Rkwq6c/0XgG/qjGbB2eAbN6+hONZ+CPaszW4Rkwq6c/0XgG/qjGbB2OGSAGveHbgxZJFbO96ljROGagWBgHRwng2DDj6aMdSzgGW8sxA+nkgQ4GXmOw67W6/C2K1HhZ8nDFgmjN1iVWBexRDnt9bV3mKuWHo2XJw+X/HlGXs9Yqv+6xVsAcOGagL9rdysALDNrdK+HYXk5/HF6UoObjSUijjlYy1G7TZCwVx/em1lKlTUcsJtpaAS7kmAGGYbr9GU6BYsOM35dQJUARpDZ9ntPtlvqgRD7nDSoGFEFUa94DPlRDPn+EXaehbi7AJdwzIGGQzx9BlaA+L52qIKlEsTCOVFG7awXJh7qoSptOqhX4xaBgQMSgWjWDpAJiNkrG96fKRy0xXz4D6iIGvXhUH6oPtcQirgS1ODGChQGGYcazJ/XFmYjJQBJCf3AXVTjaEvXaJFBXf3AnrQ+1UL3OWQtUD6QRRAxcddv9kYCoqXTyIBBElTaduMqNLUuKBLU4MYKagQW+WLNsIhwb5kZB4ipxQj8gonLxGOIq97ZiQbThW84uVQUvg4ZjebTfKd2oKY4PdzJYlODGk3aVdtcKFEVBhIAZQcqgseQrWpncF7aTARwl0GxZGDDpwYaCkQFiMjjPnymnAm4wtJ8BHNPDKg30DW0BYoDaLKo170kmPF27KcXjDJ0uf4sbod2sYoBBlID65RgMWJaMADEwnj5K1E6RGm/49iBqt9H2Sr0uiejsvc0Ig+ppQ2hbxV5hgBjY62upUz3SKYMaju6l9k0+f4T3uhM9GWEAx/YK8JE5QAwwDLPKr9duXkg+d43tZW+oI2GQz3uTqCywxaMfBTatwQyDmB6o1UxqEquLgWOAdwMx6HUF26pnvICLKI4PRwx6Ug9VaTOoEtdlr0ERu3bXCunEZ9Qb5zYc3Sud9CzJjREG1dOeR21WUpNYXQw0A7wzKIIYK45pd3xiuXaO2D27rla5dCxJWcdiXC/L9fNETwzD1BtmkzwZYQBHCWRJkYGcROKGAUnNVjAWM/VIIJ/zz4b/5lIBYBimP5TFEgM4SiAe1ccqu0rbTsYLg4UBiqK0MzyNJ/eDPqMoar58xqoUgxLTuVPqNbMACabyAA8oSx4WmANDsDAwlBUDKYmGfN5bQPHW48TInvW56aDQfPUs8GeWARwl0O74GGyIPSNYGKg+fRdISTQkEwfgnbfAF0G5OL43itgxDEMtZsWCaEJ5u+aLQBxggK2zBwDDsKBggFhM4oS+oOdOI+aRxhP78P7baqSgvPqdF3EG1uoroNCxE2/fnB0xFLADcFQICgYWSRXocxsjNgwxNoAxqD+4UzLuKenkQcYzx/FCxGKqfjcCVGGDgb5YBBrAkhEUDGxqGdCRZCiXjtUf3Ak6jw9/sOj4hrrWObHBCoPDWcTNsWEHBQPEoCdJT1o0fHeI1HnUatbu+MQxsxT9D+DMBgPT+W9Jm2Z8MRAMTBfKdPlbiB9Sx1AUlYx9AkhJNfSHHIPRrqu1KsX4ZE6daDXVjQ0GNo2ScdFJAVlnYLpQBsf0IOsV04OEQZOxlOxDuHIgTuin+TwV56TZttR09htZ8jCqP+MM5HPeIOnFxiLrDKhns7h2pGOd5do5qqZwlEC9YXbjyf2ScU85phBmvSpLeo3WDS9knIG+aDcbopNiss4AtZrV65Kqpw0hftRrk4inoIjJIJ/7L1pxbWo5hmE2tcxYcRy1mFEEkc16ldaTje+mkvH9vbmflaSpr4usM/CmQfVffkaSVTp5oGJhHO0wbL1Vm7CnAnUZzwM4SlCzYqo3XWiPD/cMUASRJj4HdMQN4/cnXPXKqoBVq9/B906kWmwwgGN64Lnoqj3tL+eeAe1MUcOxPNC3upx10sTBqlUzbGoZKKSmDhv7IpyxdvdKsF02DO4ZaLYuIQ1nOEoAbuA1V1WAtTXLp+ASoAii3jAHlAODlTyIEsiSh7EhPYgZBAy2LAQiAgPMjOqLM0GhLLn1LT6kOwSAA0sMpImDgV5sGNwzqP1sARARN4jfyu26WnC0APN3pvOnSFXwRZ6Bn0NEu30ZWVDHkyAnwDMdqNXcWPq1+Wqbq560345YYgB2jH720FM17vOAeBGGCKN65kvUy/0Yhpku/s9wqpDm3JuduWs4SlD/1WZPMrZrPfcMMAyTvf86UX1gm6sqSJ2r27MerKUarORBTA+2T9M4YGARX2o4nG3X1QJ99cUiqqCOiYqNc82XypVLxigXJVgVMGq3uaKFV2eDQQAuZwaOAYqixrMnwa0r0qlC4sUA9w/vwVECyfj+kjGP06IChYwzkL33SgCe3QwEAxRFG0sL5LOHA7Funk/1Jj725LgpePVMooMfNrMMFCkj7Q31IFnZMwLBgDp1Kh7VR1ewldQrFEUbDmdT757zHgZTDMTxvesyVxFnFUlNZXYxEAw0X3wIdJRMHFCfm+5mfDkeBKebj/OmkCkGipSRzKrsPlogGNjr1IqFcfLZw/WHszwOrjaPjPsIgykG6g2z3avG7NpAMPCpxfY6tfcPAZKSgykGDce/9KnN7XQOOgYYhrm634ukOHWREQbSic/Qnhu2U2g31YORgeX6eV+fyMR5MMKA9oUZbhRs/6pgZOB4Zv+HUj8wtJ+BJuOj9mvqa4QgZeDA8P0JX7+nit9+FPRfuXQcdWflpkQy9knihSMQJwBGsDCwaWv0RbtJE0SozdpY+rUiJUYcH45fJnOfHIqUGCAZ7aUhIgP8PSSScU8pPxyt3bWCOHcCggTGCAoGVqVYmjjYIVDMI64myPCJDW1mGlFHkq0v3AFUs0ovk9YSF5WLEjAMQ8xG4M+hwT0DJ4CbZwOkVCBJ47gLpu2cB1BWsSCa9LBt7eYPwFqiIU7oy79LzSksCYBq9UyPP75m09YoUmKImjruQFk2gfpGLhRFNZQLpdLEwabK084WBIHFZR7YtDWtu6CbGaBa/Q5pILvRx1hxXLt9mXptkubzVGNF663wtP5WBazduVyVNl29LqnhWB5iaqR147CQSwa6r78Aw9knABzqxcamuWRgvnoOf2TcsQty8d4ENvocbDG5ZOB4eF8Bm86f8ngMCDbVmG0PxwyY7UwHjcYz4B4cz4BnwL0C3LeAzwOeAfcKcN8CPg94BtwrwH0L+DzgGXCvAPct4POAZ8C9Aty3gM8DngH3CnDfAj4PeAbcK8B9C/g84Bl4p4BJdubYsTMyM4bZlN+JVs6dnjg1afGm4it0l+dNcMnOtAXvTp00efqcZVuPXGv7E0cgkl1Rujll2pSpc9cdkSHetYItrw6RB5YTs/uFdA6flV+8NPLhLtCtv06hwtSSNi8sN5zfNu7xeyEI6tLt7w/df3cIBEH3PjE584rllnytkd7LFiU+dufNOJ3uH5/P8a8FdhAGyX1DOnXr0aP7nb3fWrKn7Ir44uE1seFdIKjr88vPgx9RqD+a/HgX6I7wuI2nahyFJvjgoogHOkH3Ray56HgbKoZhlhOOSN3Dwrrf2TchvaTq+rljxaeVfB7cGqOu/99UDoK69J2QA99SHFHtHNm9E3RH5AYpXhGB//P6vVBIn5mHCe+Rt1euHNoVCnkypQxPhdZI0N3PLfmObkfmug0sruk4eQDd8cp6MWHE2itXPN8FCnl8/qmb8iDKz9+4C+rcc+aRNr9dYCmd3S8E6jpsEz7YcQYh/WYddb42lUV1vQvdkRhEbpASGCDSjZF3QJ37vI//xqnl5NzHQqBO3XoNerHN38CwezpBXZ77BN8b4QwcyUOI5J1S7Hl1YAaydJwBfqOj+cjMsM40DBxAXo1dXoI/aMwz8Hco0SqHtGVgKVvwRAhhz0+/LdpI9K6BK71t8gCrzYi6B4K6RW9Xu1GPZ+BGHLeraJUj5QGGSDYN7wZBdw/56HTb0zJiaNpIRAcu7NsnDzCs4WTKs3dBUMiDQxI/yfiq6OjRon27Ny6ePmLgY1PyWrHwDPwdZJbvFg3o2jk0OqOG8G0GUW2PCe3c9enUMmdYu7Rw8Zt97+1060za8b/zfX3fWlveelpBG8lZnxvLXR40NzWJhKHVJYXcNM3frdrrrp46sGdXxtaMXXv2l15QcjwT4bkb2qqzImEoWqdqIfxBwM4a+sD1whzPYXiPdihQU14qEob+bDYA2VtaWpwMiiZElK9PbUd8vqpnBSqzN+UNCycCaMOgfPW84kR237DquY23u0dp6pSSOQkuGWgrHGmigwP9k8K3u+zO/pnrNNkvPSQtzHLJ4M/m5oK4gWXL33dW4i1GFTi3bVXua2FNv/zkkkFLS4vyeIFIGKosd/kidkab9NcKVn/9UvaLD17J2UQC0OZ4gK/7ZuGkr0Y82SiX/LUUYrm35nrtgbEvHJ46vPnGDc8MfkNtRZNeyY/ur5cG6Gc8We4+9+GNtTWF41/+euQArEFLBUCTBy0tLb8i1kOJr+dECKpyt/7FH2VtP0D40Je5w8IL4ge5AkDPoKWlpbmpqXL76qyh9++LefrC7g11Vy8g9tbLtO1v1m0fAUVRnfhKVe7W/aOfFwlDz6xd0PTzj7QZgBc6z9GoToi25mz64r2RPUXC0JwIQUH84ANvD+E/7hUoGPVcq2IvP1yeNsciu0YVllTijgHu2vzHHxbZNdmh3MtZ6Zd2rbu0cy3/caPAZdFGaWGWEa688ftvJK1dLXpm4KomX86UAjwDppT0Pw7PwH/tmKrJM2BKSf/j8Az8146pmv8H4Hk5+O247/QAAAAASUVORK5CYII=;" vertex="1" parent="1">
          <mxGeometry x="1151.00484375" y="893.4980989583335" width="129" height="131" as="geometry" />
        </mxCell>
        <mxCell id="ogiFnDlVl8c2z2j7Tte2-37" value="Train NER model in spaCy" style="text;html=1;align=center;verticalAlign=middle;whiteSpace=wrap;rounded=0;fontStyle=1" vertex="1" parent="1">
          <mxGeometry x="1128" y="1034" width="165" height="30" as="geometry" />
        </mxCell>
        <mxCell id="ogiFnDlVl8c2z2j7Tte2-38" value="Training Architecture" style="text;html=1;align=center;verticalAlign=middle;whiteSpace=wrap;rounded=0;fontStyle=1;fontSize=24;fillColor=#ffcd28;gradientColor=#ffa500;strokeColor=#d79b00;" vertex="1" parent="1">
          <mxGeometry x="620" y="534" width="278" height="68" as="geometry" />
        </mxCell>
      </root>
    </mxGraphModel>
  </diagram>
</mxfile>
